  0
SECTION
  2
HEADER
  9
$ACADVER
  1
AC1024
  9
$ACADMAINTVER
 70
6
  9
$DWGCODEPAGE
  3
ANSI_1252
  9
$LASTSAVEDBY
  1
ezdxf
  9
$INSBASE
 10
0.0
 20
0.0
 30
0.0
  9
$EXTMIN
 10
1e+20
 20
1e+20
 30
1e+20
  9
$EXTMAX
 10
-1e+20
 20
-1e+20
 30
-1e+20
  9
$LIMMIN
 10
0.0
 20
0.0
  9
$LIMMAX
 10
420.0
 20
297.0
  9
$ORTHOMODE
 70
0
  9
$REGENMODE
 70
1
  9
$FILLMODE
 70
1
  9
$QTEXTMODE
 70
0
  9
$MIRRTEXT
 70
1
  9
$LTSCALE
 40
1.0
  9
$ATTMODE
 70
1
  9
$TEXTSIZE
 40
2.5
  9
$TRACEWID
 40
1.0
  9
$TEXTSTYLE
  7
Standard
  9
$CLAYER
  8
0
  9
$CELTYPE
  6
ByLayer
  9
$CECOLOR
 62
256
  9
$CELTSCALE
 40
1.0
  9
$DISPSILH
 70
0
  9
$DIMSCALE
 40
1.0
  9
$DIMASZ
 40
2.5
  9
$DIMEXO
 40
0.625
  9
$DIMDLI
 40
3.75
  9
$DIMRND
 40
0.0
  9
$DIMDLE
 40
0.0
  9
$DIMEXE
 40
1.25
  9
$DIMTP
 40
0.0
  9
$DIMTM
 40
0.0
  9
$DIMTXT
 40
2.5
  9
$DIMCEN
 40
2.5
  9
$DIMTSZ
 40
0.0
  9
$DIMTOL
 70
0
  9
$DIMLIM
 70
0
  9
$DIMTIH
 70
0
  9
$DIMTOH
 70
0
  9
$DIMSE1
 70
0
  9
$DIMSE2
 70
0
  9
$DIMTAD
 70
1
  9
$DIMZIN
 70
8
  9
$DIMBLK
  1

  9
$DIMASO
 70
1
  9
$DIMSHO
 70
1
  9
$DIMPOST
  1

  9
$DIMAPOST
  1

  9
$DIMALT
 70
0
  9
$DIMALTD
 70
3
  9
$DIMALTF
 40
0.03937007874
  9
$DIMLFAC
 40
1.0
  9
$DIMTOFL
 70
1
  9
$DIMTVP
 40
0.0
  9
$DIMTIX
 70
0
  9
$DIMSOXD
 70
0
  9
$DIMSAH
 70
0
  9
$DIMBLK1
  1

  9
$DIMBLK2
  1

  9
$DIMSTYLE
  2
ISO-25
  9
$DIMCLRD
 70
0
  9
$DIMCLRE
 70
0
  9
$DIMCLRT
 70
0
  9
$DIMTFAC
 40
1.0
  9
$DIMGAP
 40
0.625
  9
$DIMJUST
 70
0
  9
$DIMSD1
 70
0
  9
$DIMSD2
 70
0
  9
$DIMTOLJ
 70
0
  9
$DIMTZIN
 70
8
  9
$DIMALTZ
 70
0
  9
$DIMALTTZ
 70
0
  9
$DIMUPT
 70
0
  9
$DIMDEC
 70
2
  9
$DIMTDEC
 70
2
  9
$DIMALTU
 70
2
  9
$DIMALTTD
 70
3
  9
$DIMTXSTY
  7
Standard
  9
$DIMAUNIT
 70
0
  9
$DIMADEC
 70
0
  9
$DIMALTRND
 40
0.0
  9
$DIMAZIN
 70
0
  9
$DIMDSEP
 70
44
  9
$DIMATFIT
 70
3
  9
$DIMFRAC
 70
0
  9
$DIMLDRBLK
  1

  9
$DIMLUNIT
 70
2
  9
$DIMLWD
 70
-2
  9
$DIMLWE
 70
-2
  9
$DIMTMOVE
 70
0
  9
$DIMFXL
 40
1.0
  9
$DIMFXLON
 70
0
  9
$DIMJOGANG
 40
0.785398163397
  9
$DIMTFILL
 70
0
  9
$DIMTFILLCLR
 70
0
  9
$DIMARCSYM
 70
0
  9
$DIMLTYPE
  6

  9
$DIMLTEX1
  6

  9
$DIMLTEX2
  6

  9
$DIMTXTDIRECTION
 70
0
  9
$LUNITS
 70
2
  9
$LUPREC
 70
4
  9
$SKETCHINC
 40
1.0
  9
$FILLETRAD
 40
10.0
  9
$AUNITS
 70
0
  9
$AUPREC
 70
2
  9
$MENU
  1
.
  9
$ELEVATION
 40
0.0
  9
$PELEVATION
 40
0.0
  9
$THICKNESS
 40
0.0
  9
$LIMCHECK
 70
0
  9
$CHAMFERA
 40
0.0
  9
$CHAMFERB
 40
0.0
  9
$CHAMFERC
 40
0.0
  9
$CHAMFERD
 40
0.0
  9
$SKPOLY
 70
0
  9
$TDCREATE
 40
2459518.0269444445
  9
$TDUCREATE
 40
2458532.153996898
  9
$TDUPDATE
 40
2459518.0269444445
  9
$TDUUPDATE
 40
2458532.1544311
  9
$TDINDWG
 40
0.0
  9
$TDUSRTIMER
 40
0.0
  9
$USRTIMER
 70
1
  9
$ANGBASE
 50
0.0
  9
$ANGDIR
 70
0
  9
$PDMODE
 70
0
  9
$PDSIZE
 40
0.0
  9
$PLINEWID
 40
0.0
  9
$SPLFRAME
 70
0
  9
$SPLINETYPE
 70
6
  9
$SPLINESEGS
 70
8
  9
$HANDSEED
  5
281
  9
$SURFTAB1
 70
6
  9
$SURFTAB2
 70
6
  9
$SURFTYPE
 70
6
  9
$SURFU
 70
6
  9
$SURFV
 70
6
  9
$UCSBASE
  2

  9
$UCSNAME
  2

  9
$UCSORG
 10
0.0
 20
0.0
 30
0.0
  9
$UCSXDIR
 10
1.0
 20
0.0
 30
0.0
  9
$UCSYDIR
 10
0.0
 20
1.0
 30
0.0
  9
$UCSORTHOREF
  2

  9
$UCSORTHOVIEW
 70
0
  9
$UCSORGTOP
 10
0.0
 20
0.0
 30
0.0
  9
$UCSORGBOTTOM
 10
0.0
 20
0.0
 30
0.0
  9
$UCSORGLEFT
 10
0.0
 20
0.0
 30
0.0
  9
$UCSORGRIGHT
 10
0.0
 20
0.0
 30
0.0
  9
$UCSORGFRONT
 10
0.0
 20
0.0
 30
0.0
  9
$UCSORGBACK
 10
0.0
 20
0.0
 30
0.0
  9
$PUCSBASE
  2

  9
$PUCSNAME
  2

  9
$PUCSORG
 10
0.0
 20
0.0
 30
0.0
  9
$PUCSXDIR
 10
1.0
 20
0.0
 30
0.0
  9
$PUCSYDIR
 10
0.0
 20
1.0
 30
0.0
  9
$PUCSORTHOREF
  2

  9
$PUCSORTHOVIEW
 70
0
  9
$PUCSORGTOP
 10
0.0
 20
0.0
 30
0.0
  9
$PUCSORGBOTTOM
 10
0.0
 20
0.0
 30
0.0
  9
$PUCSORGLEFT
 10
0.0
 20
0.0
 30
0.0
  9
$PUCSORGRIGHT
 10
0.0
 20
0.0
 30
0.0
  9
$PUCSORGFRONT
 10
0.0
 20
0.0
 30
0.0
  9
$PUCSORGBACK
 10
0.0
 20
0.0
 30
0.0
  9
$USERI1
 70
0
  9
$USERI2
 70
0
  9
$USERI3
 70
0
  9
$USERI4
 70
0
  9
$USERI5
 70
0
  9
$USERR1
 40
0.0
  9
$USERR2
 40
0.0
  9
$USERR3
 40
0.0
  9
$USERR4
 40
0.0
  9
$USERR5
 40
0.0
  9
$WORLDVIEW
 70
1
  9
$SHADEDGE
 70
3
  9
$SHADEDIF
 70
70
  9
$TILEMODE
 70
1
  9
$MAXACTVP
 70
64
  9
$PINSBASE
 10
0.0
 20
0.0
 30
0.0
  9
$PLIMCHECK
 70
0
  9
$PEXTMIN
 10
1e+20
 20
1e+20
 30
1e+20
  9
$PEXTMAX
 10
-1e+20
 20
-1e+20
 30
-1e+20
  9
$PLIMMIN
 10
0.0
 20
0.0
  9
$PLIMMAX
 10
420.0
 20
297.0
  9
$UNITMODE
 70
0
  9
$VISRETAIN
 70
1
  9
$PLINEGEN
 70
0
  9
$PSLTSCALE
 70
1
  9
$TREEDEPTH
 70
3020
  9
$CMLSTYLE
  2
Standard
  9
$CMLJUST
 70
0
  9
$CMLSCALE
 40
20.0
  9
$PROXYGRAPHICS
 70
1
  9
$MEASUREMENT
 70
1
  9
$CELWEIGHT
370
-1
  9
$ENDCAPS
280
0
  9
$JOINSTYLE
280
0
  9
$LWDISPLAY
290
0
  9
$INSUNITS
 70
6
  9
$HYPERLINKBASE
  1

  9
$STYLESHEET
  1

  9
$XEDIT
290
1
  9
$CEPSNTYPE
380
0
  9
$PSTYLEMODE
290
1
  9
$FINGERPRINTGUID
  2
{1B36F10C-41C8-451E-A52B-A62694435811}
  9
$VERSIONGUID
  2
{D6365EFF-67F9-4801-87F6-0CFDC823A3FC}
  9
$EXTNAMES
290
1
  9
$PSVPSCALE
 40
0.0
  9
$OLESTARTUP
290
0
  9
$SORTENTS
280
127
  9
$INDEXCTL
280
0
  9
$HIDETEXT
280
1
  9
$XCLIPFRAME
280
0
  9
$HALOGAP
280
0
  9
$OBSCOLOR
 70
257
  9
$OBSLTYPE
280
0
  9
$INTERSECTIONDISPLAY
280
0
  9
$INTERSECTIONCOLOR
 70
257
  9
$DIMASSOC
280
2
  9
$PROJECTNAME
  1

  9
$CAMERADISPLAY
290
0
  9
$LENSLENGTH
 40
50.0
  9
$CAMERAHEIGHT
 40
0.0
  9
$STEPSPERSEC
 40
24.0
  9
$STEPSIZE
 40
100.0
  9
$3DDWFPREC
 40
2.0
  9
$PSOLWIDTH
 40
0.005
  9
$PSOLHEIGHT
 40
0.08
  9
$LOFTANG1
 40
1.570796326795
  9
$LOFTANG2
 40
1.570796326795
  9
$LOFTMAG1
 40
0.0
  9
$LOFTMAG2
 40
0.0
  9
$LOFTPARAM
 70
7
  9
$LOFTNORMALS
280
1
  9
$LATITUDE
 40
37.795
  9
$LONGITUDE
 40
-122.394
  9
$NORTHDIRECTION
 40
0.0
  9
$TIMEZONE
 70
-8000
  9
$LIGHTGLYPHDISPLAY
280
1
  9
$TILEMODELIGHTSYNCH
280
1
  9
$CMATERIAL
347
20
  9
$SOLIDHIST
280
0
  9
$SHOWHIST
280
1
  9
$DWFFRAME
280
2
  9
$DGNFRAME
280
2
  9
$REALWORLDSCALE
290
1
  9
$INTERFERECOLOR
 62
256
  9
$CSHADOW
280
0
  9
$SHADOWPLANELOCATION
 40
0.0
  0
ENDSEC
  0
SECTION
  2
CLASSES
  0
CLASS
  1
ACDBDICTIONARYWDFLT
  2
AcDbDictionaryWithDefault
  3
ObjectDBX Classes
 90
0
 91
0
280
0
281
0
  0
CLASS
  1
SUN
  2
AcDbSun
  3
SCENEOE
 90
1153
 91
0
280
0
281
0
  0
CLASS
  1
VISUALSTYLE
  2
AcDbVisualStyle
  3
ObjectDBX Classes
 90
4095
 91
0
280
0
281
0
  0
CLASS
  1
MATERIAL
  2
AcDbMaterial
  3
ObjectDBX Classes
 90
1153
 91
0
280
0
281
0
  0
CLASS
  1
SCALE
  2
AcDbScale
  3
ObjectDBX Classes
 90
1153
 91
0
280
0
281
0
  0
CLASS
  1
TABLESTYLE
  2
AcDbTableStyle
  3
ObjectDBX Classes
 90
4095
 91
0
280
0
281
0
  0
CLASS
  1
MLEADERSTYLE
  2
AcDbMLeaderStyle
  3
ACDB_MLEADERSTYLE_CLASS
 90
4095
 91
0
280
0
281
0
  0
CLASS
  1
DICTIONARYVAR
  2
AcDbDictionaryVar
  3
ObjectDBX Classes
 90
0
 91
0
280
0
281
0
  0
CLASS
  1
CELLSTYLEMAP
  2
AcDbCellStyleMap
  3
ObjectDBX Classes
 90
1152
 91
0
280
0
281
0
  0
CLASS
  1
MENTALRAYRENDERSETTINGS
  2
AcDbMentalRayRenderSettings
  3
SCENEOE
 90
1024
 91
0
280
0
281
0
  0
CLASS
  1
ACDBDETAILVIEWSTYLE
  2
AcDbDetailViewStyle
  3
ObjectDBX Classes
 90
1025
 91
0
280
0
281
0
  0
CLASS
  1
ACDBSECTIONVIEWSTYLE
  2
AcDbSectionViewStyle
  3
ObjectDBX Classes
 90
1025
 91
0
280
0
281
0
  0
CLASS
  1
RASTERVARIABLES
  2
AcDbRasterVariables
  3
ISM
 90
0
 91
0
280
0
281
0
  0
CLASS
  1
LAYOUT
  2
AcDbLayout
  3
ObjectDBX Classes
 90
0
 91
0
280
0
281
0
  0
CLASS
  1
ACDBPLACEHOLDER
  2
AcDbPlaceHolder
  3
ObjectDBX Classes
 90
0
 91
0
280
0
281
0
  0
ENDSEC
  0
SECTION
  2
TABLES
  0
TABLE
  2
VPORT
  5
8
330
0
100
AcDbSymbolTable
 70
1
  0
VPORT
  5
23
330
8
100
AcDbSymbolTableRecord
100
AcDbViewportTableRecord
  2
*Active
 70
0
 10
0.0
 20
0.0
 11
1.0
 21
1.0
 12
344.2
 22
148.5
 13
0.0
 23
0.0
 14
0.5
 24
0.5
 15
0.5
 25
0.5
 16
0.0
 26
0.0
 36
1.0
 17
0.0
 27
0.0
 37
0.0
 40
297.0
 41
1.34
 42
50.0
 43
0.0
 44
0.0
 50
0.0
 51
0.0
 71
0
 72
1000
 73
1
 74
3
 75
0
 76
0
 77
0
 78
0
281
0
 65
0
146
0.0
  0
ENDTAB
  0
TABLE
  2
LTYPE
  5
2
330
0
100
AcDbSymbolTable
 70
3
  0
LTYPE
  5
24
330
2
100
AcDbSymbolTableRecord
100
AcDbLinetypeTableRecord
  2
ByBlock
 70
0
  3

 72
65
 73
0
 40
0.0
  0
LTYPE
  5
25
330
2
100
AcDbSymbolTableRecord
100
AcDbLinetypeTableRecord
  2
ByLayer
 70
0
  3

 72
65
 73
0
 40
0.0
  0
LTYPE
  5
26
330
2
100
AcDbSymbolTableRecord
100
AcDbLinetypeTableRecord
  2
Continuous
 70
0
  3

 72
65
 73
0
 40
0.0
  0
ENDTAB
  0
TABLE
  2
LAYER
  5
1
330
0
100
AcDbSymbolTable
 70
3
  0
LAYER
  5
27
330
1
100
AcDbSymbolTableRecord
100
AcDbLayerTableRecord
  2
0
 70
0
 62
7
  6
Continuous
370
-3
390
13
347
21
  0
LAYER
  5
28
330
1
100
AcDbSymbolTableRecord
100
AcDbLayerTableRecord
  2
Defpoints
 70
0
 62
7
  6
Continuous
290
0
370
-3
390
13
347
21
  0
LAYER
  5
2F
330
1
100
AcDbSymbolTableRecord
100
AcDbLayerTableRecord
  2
TABLE
 70
0
 62
7
  6
Continuous
370
-3
390
13
347
21
  0
ENDTAB
  0
TABLE
  2
STYLE
  5
5
330
0
100
AcDbSymbolTable
 70
2
  0
STYLE
  5
29
330
5
100
AcDbSymbolTableRecord
100
AcDbTextStyleTableRecord
  2
Standard
 70
0
 40
0.0
 41
1.0
 50
0.0
 71
0
 42
2.5
  3
txt
  4

  0
STYLE
  5
30
330
5
100
AcDbSymbolTableRecord
100
AcDbTextStyleTableRecord
  2
font-Arial
 70
0
 40
0.0
 41
1.0
 50
0.0
 71
0
 42
2.5
  3
Arial
  4

  0
ENDTAB
  0
TABLE
  2
VIEW
  5
7
330
0
100
AcDbSymbolTable
 70
0
  0
ENDTAB
  0
TABLE
  2
UCS
  5
6
330
0
100
AcDbSymbolTable
 70
0
  0
ENDTAB
  0
TABLE
  2
APPID
  5
3
330
0
100
AcDbSymbolTable
 70
3
  0
APPID
  5
2A
330
3
100
AcDbSymbolTableRecord
100
AcDbRegAppTableRecord
  2
ACAD
 70
0
  0
APPID
  5
27E
330
3
100
AcDbSymbolTableRecord
100
AcDbRegAppTableRecord
  2
HATCHBACKGROUNDCOLOR
 70
0
  0
APPID
  5
27F
330
3
100
AcDbSymbolTableRecord
100
AcDbRegAppTableRecord
  2
EZDXF
 70
0
  0
ENDTAB
  0
TABLE
  2
DIMSTYLE
  5
4
330
0
100
AcDbSymbolTable
 70
1
100
AcDbDimStyleTable
  0
DIMSTYLE
105
2B
330
4
100
AcDbSymbolTableRecord
100
AcDbDimStyleTableRecord
  2
Standard
 70
0
 40
1.0
 41
2.5
 42
0.625
 43
3.75
 44
1.25
 45
0.0
 46
0.0
 47
0.0
 48
0.0
 49
2.5
140
2.5
141
2.5
142
0.0
143
0.03937007874
144
1.0
145
0.0
146
1.0
147
0.625
148
0.0
 69
0
 70
0
 71
0
 72
0
 73
0
 74
0
 75
0
 76
0
 77
1
 78
8
 79
0
170
0
171
3
172
1
173
0
174
0
175
0
176
0
177
0
178
0
179
0
271
0
272
2
273
2
274
3
275
0
276
0
277
2
278
44
279
0
280
0
281
0
282
0
283
0
284
8
285
0
286
0
288
0
289
3
290
0
371
-2
372
-2
  0
ENDTAB
  0
TABLE
  2
BLOCK_RECORD
  5
9
330
0
100
AcDbSymbolTable
 70
2
  0
BLOCK_RECORD
  5
17
330
9
100
AcDbSymbolTableRecord
100
AcDbBlockTableRecord
  2
*Model_Space
340
1A
 70
0
280
1
281
0
  0
BLOCK_RECORD
  5
1B
330
9
100
AcDbSymbolTableRecord
100
AcDbBlockTableRecord
  2
*Paper_Space
340
1E
 70
0
280
1
281
0
  0
ENDTAB
  0
ENDSEC
  0
SECTION
  2
BLOCKS
  0
BLOCK
  5
18
330
17
100
AcDbEntity
  8
0
100
AcDbBlockBegin
  2
*Model_Space
 70
0
 10
0.0
 20
0.0
 30
0.0
  3
*Model_Space
  1

  0
ENDBLK
  5
19
330
17
100
AcDbEntity
  8
0
100
AcDbBlockEnd
  0
BLOCK
  5
1C
330
1B
100
AcDbEntity
  8
0
100
AcDbBlockBegin
  2
*Paper_Space
 70
0
 10
0.0
 20
0.0
 30
0.0
  3
*Paper_Space
  1

  0
ENDBLK
  5
1D
330
1B
100
AcDbEntity
  8
0
100
AcDbBlockEnd
  0
ENDSEC
  0
SECTION
  2
ENTITIES
  0
LINE
  5
31
330
17
100
AcDbEntity
  8
TABLE
100
AcDbLine
 10
0.0
 20
0.0
 30
0.0
 11
30.0
 21
0.0
 31
0.0
  0
LINE
  5
32
330
17
100
AcDbEntity
  8
TABLE
100
AcDbLine
 10
30.0
 20
0.0
 30
0.0
 11
60.0
 21
0.0
 31
0.0
  0
LINE
  5
33
330
17
100
AcDbEntity
  8
TABLE
100
AcDbLine
 10
60.0
 20
0.0
 30
0.0
 11
90.0
 21
0.0
 31
0.0
  0
LINE
  5
34
330
17
100
AcDbEntity
  8
TABLE
100
AcDbLine
 10
90.0
 20
0.0
 30
0.0
 11
120.0
 21
0.0
 31
0.0
  0
LINE
  5
35
330
17
100
AcDbEntity
  8
TABLE
100
AcDbLine
 10
120.0
 20
0.0
 30
0.0
 11
150.0
 21
0.0
 31
0.0
  0
LINE
  5
36
330
17
100
AcDbEntity
  8
TABLE
100
AcDbLine
 10
150.0
 20
0.0
 30
0.0
 11
180.0
 21
0.0
 31
0.0
  0
LINE
  5
37
330
17
100
AcDbEntity
  8
TABLE
100
AcDbLine
 10
180.0
 20
0.0
 30
0.0
 11
210.0
 21
0.0
 31
0.0
  0
LINE
  5
38
330
17
100
AcDbEntity
  8
TABLE
100
AcDbLine
 10
210.0
 20
0.0
 30
0.0
 11
240.0
 21
0.0
 31
0.0
  0
LINE
  5
39
330
17
100
AcDbEntity
  8
TABLE
100
AcDbLine
 10
240.0
 20
0.0
 30
0.0
 11
270.0
 21
0.0
 31
0.0
  0
LINE
  5
3A
330
17
100
AcDbEntity
  8
TABLE
100
AcDbLine
 10
270.0
 20
0.0
 30
0.0
 11
300.0
 21
0.0
 31
0.0
  0
LINE
  5
3B
330
17
100
AcDbEntity
  8
TABLE
100
AcDbLine
 10
300.0
 20
0.0
 30
0.0
 11
330.0
 21
0.0
 31
0.0
  0
LINE
  5
3C
330
17
100
AcDbEntity
  8
TABLE
100
AcDbLine
 10
330.0
 20
0.0
 30
0.0
 11
360.0
 21
0.0
 31
0.0
  0
LINE
  5
3D
330
17
100
AcDbEntity
  8
TABLE
100
AcDbLine
 10
360.0
 20
0.0
 30
0.0
 11
390.0
 21
0.0
 31
0.0
  0
LINE
  5
3E
330
17
100
AcDbEntity
  8
TABLE
100
AcDbLine
 10
390.0
 20
0.0
 30
0.0
 11
420.0
 21
0.0
 31
0.0
  0
LINE
  5
3F
330
17
100
AcDbEntity
  8
TABLE
100
AcDbLine
 10
420.0
 20
0.0
 30
0.0
 11
450.0
 21
0.0
 31
0.0
  0
LINE
  5
40
330
17
100
AcDbEntity
  8
TABLE
100
AcDbLine
 10
450.0
 20
0.0
 30
0.0
 11
480.0
 21
0.0
 31
0.0
  0
LINE
  5
41
330
17
100
AcDbEntity
  8
TABLE
100
AcDbLine
 10
480.0
 20
0.0
 30
0.0
 11
510.0
 21
0.0
 31
0.0
  0
LINE
  5
42
330
17
100
AcDbEntity
  8
TABLE
100
AcDbLine
 10
0.0
 20
96.0
 30
0.0
 11
30.0
 21
96.0
 31
0.0
  0
LINE
  5
43
330
17
100
AcDbEntity
  8
TABLE
100
AcDbLine
 10
30.0
 20
96.0
 30
0.0
 11
60.0
 21
96.0
 31
0.0
  0
LINE
  5
44
330
17
100
AcDbEntity
  8
TABLE
100
AcDbLine
 10
60.0
 20
96.0
 30
0.0
 11
90.0
 21
96.0
 31
0.0
  0
LINE
  5
45
330
17
100
AcDbEntity
  8
TABLE
100
AcDbLine
 10
90.0
 20
96.0
 30
0.0
 11
120.0
 21
96.0
 31
0.0
  0
LINE
  5
46
330
17
100
AcDbEntity
  8
TABLE
100
AcDbLine
 10
120.0
 20
96.0
 30
0.0
 11
150.0
 21
96.0
 31
0.0
  0
LINE
  5
47
330
17
100
AcDbEntity
  8
TABLE
100
AcDbLine
 10
150.0
 20
96.0
 30
0.0
 11
180.0
 21
96.0
 31
0.0
  0
LINE
  5
48
330
17
100
AcDbEntity
  8
TABLE
100
AcDbLine
 10
180.0
 20
96.0
 30
0.0
 11
210.0
 21
96.0
 31
0.0
  0
LINE
  5
49
330
17
100
AcDbEntity
  8
TABLE
100
AcDbLine
 10
210.0
 20
96.0
 30
0.0
 11
240.0
 21
96.0
 31
0.0
  0
LINE
  5
4A
330
17
100
AcDbEntity
  8
TABLE
100
AcDbLine
 10
240.0
 20
96.0
 30
0.0
 11
270.0
 21
96.0
 31
0.0
  0
LINE
  5
4B
330
17
100
AcDbEntity
  8
TABLE
100
AcDbLine
 10
270.0
 20
96.0
 30
0.0
 11
300.0
 21
96.0
 31
0.0
  0
LINE
  5
4C
330
17
100
AcDbEntity
  8
TABLE
100
AcDbLine
 10
300.0
 20
96.0
 30
0.0
 11
330.0
 21
96.0
 31
0.0
  0
LINE
  5
4D
330
17
100
AcDbEntity
  8
TABLE
100
AcDbLine
 10
330.0
 20
96.0
 30
0.0
 11
360.0
 21
96.0
 31
0.0
  0
LINE
  5
4E
330
17
100
AcDbEntity
  8
TABLE
100
AcDbLine
 10
360.0
 20
96.0
 30
0.0
 11
390.0
 21
96.0
 31
0.0
  0
LINE
  5
4F
330
17
100
AcDbEntity
  8
TABLE
100
AcDbLine
 10
390.0
 20
96.0
 30
0.0
 11
420.0
 21
96.0
 31
0.0
  0
LINE
  5
50
330
17
100
AcDbEntity
  8
TABLE
100
AcDbLine
 10
420.0
 20
96.0
 30
0.0
 11
450.0
 21
96.0
 31
0.0
  0
LINE
  5
51
330
17
100
AcDbEntity
  8
TABLE
100
AcDbLine
 10
450.0
 20
96.0
 30
0.0
 11
480.0
 21
96.0
 31
0.0
  0
LINE
  5
52
330
17
100
AcDbEntity
  8
TABLE
100
AcDbLine
 10
480.0
 20
96.0
 30
0.0
 11
510.0
 21
96.0
 31
0.0
  0
LINE
  5
53
330
17
100
AcDbEntity
  8
TABLE
100
AcDbLine
 10
0.0
 20
192.0
 30
0.0
 11
30.0
 21
192.0
 31
0.0
  0
LINE
  5
54
330
17
100
AcDbEntity
  8
TABLE
100
AcDbLine
 10
30.0
 20
192.0
 30
0.0
 11
60.0
 21
192.0
 31
0.0
  0
LINE
  5
55
330
17
100
AcDbEntity
  8
TABLE
100
AcDbLine
 10
60.0
 20
192.0
 30
0.0
 11
90.0
 21
192.0
 31
0.0
  0
LINE
  5
56
330
17
100
AcDbEntity
  8
TABLE
100
AcDbLine
 10
90.0
 20
192.0
 30
0.0
 11
120.0
 21
192.0
 31
0.0
  0
LINE
  5
57
330
17
100
AcDbEntity
  8
TABLE
100
AcDbLine
 10
120.0
 20
192.0
 30
0.0
 11
150.0
 21
192.0
 31
0.0
  0
LINE
  5
58
330
17
100
AcDbEntity
  8
TABLE
100
AcDbLine
 10
150.0
 20
192.0
 30
0.0
 11
180.0
 21
192.0
 31
0.0
  0
LINE
  5
59
330
17
100
AcDbEntity
  8
TABLE
100
AcDbLine
 10
180.0
 20
192.0
 30
0.0
 11
210.0
 21
192.0
 31
0.0
  0
LINE
  5
5A
330
17
100
AcDbEntity
  8
TABLE
100
AcDbLine
 10
210.0
 20
192.0
 30
0.0
 11
240.0
 21
192.0
 31
0.0
  0
LINE
  5
5B
330
17
100
AcDbEntity
  8
TABLE
100
AcDbLine
 10
240.0
 20
192.0
 30
0.0
 11
270.0
 21
192.0
 31
0.0
  0
LINE
  5
5C
330
17
100
AcDbEntity
  8
TABLE
100
AcDbLine
 10
270.0
 20
192.0
 30
0.0
 11
300.0
 21
192.0
 31
0.0
  0
LINE
  5
5D
330
17
100
AcDbEntity
  8
TABLE
100
AcDbLine
 10
300.0
 20
192.0
 30
0.0
 11
330.0
 21
192.0
 31
0.0
  0
LINE
  5
5E
330
17
100
AcDbEntity
  8
TABLE
100
AcDbLine
 10
330.0
 20
192.0
 30
0.0
 11
360.0
 21
192.0
 31
0.0
  0
LINE
  5
5F
330
17
100
AcDbEntity
  8
TABLE
100
AcDbLine
 10
360.0
 20
192.0
 30
0.0
 11
390.0
 21
192.0
 31
0.0
  0
LINE
  5
60
330
17
100
AcDbEntity
  8
TABLE
100
AcDbLine
 10
390.0
 20
192.0
 30
0.0
 11
420.0
 21
192.0
 31
0.0
  0
LINE
  5
61
330
17
100
AcDbEntity
  8
TABLE
100
AcDbLine
 10
420.0
 20
192.0
 30
0.0
 11
450.0
 21
192.0
 31
0.0
  0
LINE
  5
62
330
17
100
AcDbEntity
  8
TABLE
100
AcDbLine
 10
450.0
 20
192.0
 30
0.0
 11
480.0
 21
192.0
 31
0.0
  0
LINE
  5
63
330
17
100
AcDbEntity
  8
TABLE
100
AcDbLine
 10
480.0
 20
192.0
 30
0.0
 11
510.0
 21
192.0
 31
0.0
  0
LINE
  5
64
330
17
100
AcDbEntity
  8
TABLE
100
AcDbLine
 10
0.0
 20
288.0
 30
0.0
 11
30.0
 21
288.0
 31
0.0
  0
LINE
  5
65
330
17
100
AcDbEntity
  8
TABLE
100
AcDbLine
 10
30.0
 20
288.0
 30
0.0
 11
60.0
 21
288.0
 31
0.0
  0
LINE
  5
66
330
17
100
AcDbEntity
  8
TABLE
100
AcDbLine
 10
60.0
 20
288.0
 30
0.0
 11
90.0
 21
288.0
 31
0.0
  0
LINE
  5
67
330
17
100
AcDbEntity
  8
TABLE
100
AcDbLine
 10
90.0
 20
288.0
 30
0.0
 11
120.0
 21
288.0
 31
0.0
  0
LINE
  5
68
330
17
100
AcDbEntity
  8
TABLE
100
AcDbLine
 10
120.0
 20
288.0
 30
0.0
 11
150.0
 21
288.0
 31
0.0
  0
LINE
  5
69
330
17
100
AcDbEntity
  8
TABLE
100
AcDbLine
 10
150.0
 20
288.0
 30
0.0
 11
180.0
 21
288.0
 31
0.0
  0
LINE
  5
6A
330
17
100
AcDbEntity
  8
TABLE
100
AcDbLine
 10
180.0
 20
288.0
 30
0.0
 11
210.0
 21
288.0
 31
0.0
  0
LINE
  5
6B
330
17
100
AcDbEntity
  8
TABLE
100
AcDbLine
 10
210.0
 20
288.0
 30
0.0
 11
240.0
 21
288.0
 31
0.0
  0
LINE
  5
6C
330
17
100
AcDbEntity
  8
TABLE
100
AcDbLine
 10
240.0
 20
288.0
 30
0.0
 11
270.0
 21
288.0
 31
0.0
  0
LINE
  5
6D
330
17
100
AcDbEntity
  8
TABLE
100
AcDbLine
 10
270.0
 20
288.0
 30
0.0
 11
300.0
 21
288.0
 31
0.0
  0
LINE
  5
6E
330
17
100
AcDbEntity
  8
TABLE
100
AcDbLine
 10
300.0
 20
288.0
 30
0.0
 11
330.0
 21
288.0
 31
0.0
  0
LINE
  5
6F
330
17
100
AcDbEntity
  8
TABLE
100
AcDbLine
 10
330.0
 20
288.0
 30
0.0
 11
360.0
 21
288.0
 31
0.0
  0
LINE
  5
70
330
17
100
AcDbEntity
  8
TABLE
100
AcDbLine
 10
360.0
 20
288.0
 30
0.0
 11
390.0
 21
288.0
 31
0.0
  0
LINE
  5
71
330
17
100
AcDbEntity
  8
TABLE
100
AcDbLine
 10
390.0
 20
288.0
 30
0.0
 11
420.0
 21
288.0
 31
0.0
  0
LINE
  5
72
330
17
100
AcDbEntity
  8
TABLE
100
AcDbLine
 10
420.0
 20
288.0
 30
0.0
 11
450.0
 21
288.0
 31
0.0
  0
LINE
  5
73
330
17
100
AcDbEntity
  8
TABLE
100
AcDbLine
 10
450.0
 20
288.0
 30
0.0
 11
480.0
 21
288.0
 31
0.0
  0
LINE
  5
74
330
17
100
AcDbEntity
  8
TABLE
100
AcDbLine
 10
480.0
 20
288.0
 30
0.0
 11
510.0
 21
288.0
 31
0.0
  0
LINE
  5
75
330
17
100
AcDbEntity
  8
TABLE
100
AcDbLine
 10
0.0
 20
384.0
 30
0.0
 11
30.0
 21
384.0
 31
0.0
  0
LINE
  5
76
330
17
100
AcDbEntity
  8
TABLE
100
AcDbLine
 10
30.0
 20
384.0
 30
0.0
 11
60.0
 21
384.0
 31
0.0
  0
LINE
  5
77
330
17
100
AcDbEntity
  8
TABLE
100
AcDbLine
 10
60.0
 20
384.0
 30
0.0
 11
90.0
 21
384.0
 31
0.0
  0
LINE
  5
78
330
17
100
AcDbEntity
  8
TABLE
100
AcDbLine
 10
90.0
 20
384.0
 30
0.0
 11
120.0
 21
384.0
 31
0.0
  0
LINE
  5
79
330
17
100
AcDbEntity
  8
TABLE
100
AcDbLine
 10
120.0
 20
384.0
 30
0.0
 11
150.0
 21
384.0
 31
0.0
  0
LINE
  5
7A
330
17
100
AcDbEntity
  8
TABLE
100
AcDbLine
 10
150.0
 20
384.0
 30
0.0
 11
180.0
 21
384.0
 31
0.0
  0
LINE
  5
7B
330
17
100
AcDbEntity
  8
TABLE
100
AcDbLine
 10
180.0
 20
384.0
 30
0.0
 11
210.0
 21
384.0
 31
0.0
  0
LINE
  5
7C
330
17
100
AcDbEntity
  8
TABLE
100
AcDbLine
 10
210.0
 20
384.0
 30
0.0
 11
240.0
 21
384.0
 31
0.0
  0
LINE
  5
7D
330
17
100
AcDbEntity
  8
TABLE
100
AcDbLine
 10
240.0
 20
384.0
 30
0.0
 11
270.0
 21
384.0
 31
0.0
  0
LINE
  5
7E
330
17
100
AcDbEntity
  8
TABLE
100
AcDbLine
 10
270.0
 20
384.0
 30
0.0
 11
300.0
 21
384.0
 31
0.0
  0
LINE
  5
7F
330
17
100
AcDbEntity
  8
TABLE
100
AcDbLine
 10
300.0
 20
384.0
 30
0.0
 11
330.0
 21
384.0
 31
0.0
  0
LINE
  5
80
330
17
100
AcDbEntity
  8
TABLE
100
AcDbLine
 10
330.0
 20
384.0
 30
0.0
 11
360.0
 21
384.0
 31
0.0
  0
LINE
  5
81
330
17
100
AcDbEntity
  8
TABLE
100
AcDbLine
 10
360.0
 20
384.0
 30
0.0
 11
390.0
 21
384.0
 31
0.0
  0
LINE
  5
82
330
17
100
AcDbEntity
  8
TABLE
100
AcDbLine
 10
390.0
 20
384.0
 30
0.0
 11
420.0
 21
384.0
 31
0.0
  0
LINE
  5
83
330
17
100
AcDbEntity
  8
TABLE
100
AcDbLine
 10
420.0
 20
384.0
 30
0.0
 11
450.0
 21
384.0
 31
0.0
  0
LINE
  5
84
330
17
100
AcDbEntity
  8
TABLE
100
AcDbLine
 10
450.0
 20
384.0
 30
0.0
 11
480.0
 21
384.0
 31
0.0
  0
LINE
  5
85
330
17
100
AcDbEntity
  8
TABLE
100
AcDbLine
 10
480.0
 20
384.0
 30
0.0
 11
510.0
 21
384.0
 31
0.0
  0
LINE
  5
86
330
17
100
AcDbEntity
  8
TABLE
100
AcDbLine
 10
0.0
 20
480.0
 30
0.0
 11
30.0
 21
480.0
 31
0.0
  0
LINE
  5
87
330
17
100
AcDbEntity
  8
TABLE
100
AcDbLine
 10
30.0
 20
480.0
 30
0.0
 11
60.0
 21
480.0
 31
0.0
  0
LINE
  5
88
330
17
100
AcDbEntity
  8
TABLE
100
AcDbLine
 10
60.0
 20
480.0
 30
0.0
 11
90.0
 21
480.0
 31
0.0
  0
LINE
  5
89
330
17
100
AcDbEntity
  8
TABLE
100
AcDbLine
 10
90.0
 20
480.0
 30
0.0
 11
120.0
 21
480.0
 31
0.0
  0
LINE
  5
8A
330
17
100
AcDbEntity
  8
TABLE
100
AcDbLine
 10
120.0
 20
480.0
 30
0.0
 11
150.0
 21
480.0
 31
0.0
  0
LINE
  5
8B
330
17
100
AcDbEntity
  8
TABLE
100
AcDbLine
 10
150.0
 20
480.0
 30
0.0
 11
180.0
 21
480.0
 31
0.0
  0
LINE
  5
8C
330
17
100
AcDbEntity
  8
TABLE
100
AcDbLine
 10
180.0
 20
480.0
 30
0.0
 11
210.0
 21
480.0
 31
0.0
  0
LINE
  5
8D
330
17
100
AcDbEntity
  8
TABLE
100
AcDbLine
 10
210.0
 20
480.0
 30
0.0
 11
240.0
 21
480.0
 31
0.0
  0
LINE
  5
8E
330
17
100
AcDbEntity
  8
TABLE
100
AcDbLine
 10
240.0
 20
480.0
 30
0.0
 11
270.0
 21
480.0
 31
0.0
  0
LINE
  5
8F
330
17
100
AcDbEntity
  8
TABLE
100
AcDbLine
 10
270.0
 20
480.0
 30
0.0
 11
300.0
 21
480.0
 31
0.0
  0
LINE
  5
90
330
17
100
AcDbEntity
  8
TABLE
100
AcDbLine
 10
300.0
 20
480.0
 30
0.0
 11
330.0
 21
480.0
 31
0.0
  0
LINE
  5
91
330
17
100
AcDbEntity
  8
TABLE
100
AcDbLine
 10
330.0
 20
480.0
 30
0.0
 11
360.0
 21
480.0
 31
0.0
  0
LINE
  5
92
330
17
100
AcDbEntity
  8
TABLE
100
AcDbLine
 10
360.0
 20
480.0
 30
0.0
 11
390.0
 21
480.0
 31
0.0
  0
LINE
  5
93
330
17
100
AcDbEntity
  8
TABLE
100
AcDbLine
 10
390.0
 20
480.0
 30
0.0
 11
420.0
 21
480.0
 31
0.0
  0
LINE
  5
94
330
17
100
AcDbEntity
  8
TABLE
100
AcDbLine
 10
420.0
 20
480.0
 30
0.0
 11
450.0
 21
480.0
 31
0.0
  0
LINE
  5
95
330
17
100
AcDbEntity
  8
TABLE
100
AcDbLine
 10
450.0
 20
480.0
 30
0.0
 11
480.0
 21
480.0
 31
0.0
  0
LINE
  5
96
330
17
100
AcDbEntity
  8
TABLE
100
AcDbLine
 10
480.0
 20
480.0
 30
0.0
 11
510.0
 21
480.0
 31
0.0
  0
LINE
  5
97
330
17
100
AcDbEntity
  8
TABLE
100
AcDbLine
 10
0.0
 20
576.0
 30
0.0
 11
30.0
 21
576.0
 31
0.0
  0
LINE
  5
98
330
17
100
AcDbEntity
  8
TABLE
100
AcDbLine
 10
30.0
 20
576.0
 30
0.0
 11
60.0
 21
576.0
 31
0.0
  0
LINE
  5
99
330
17
100
AcDbEntity
  8
TABLE
100
AcDbLine
 10
60.0
 20
576.0
 30
0.0
 11
90.0
 21
576.0
 31
0.0
  0
LINE
  5
9A
330
17
100
AcDbEntity
  8
TABLE
100
AcDbLine
 10
90.0
 20
576.0
 30
0.0
 11
120.0
 21
576.0
 31
0.0
  0
LINE
  5
9B
330
17
100
AcDbEntity
  8
TABLE
100
AcDbLine
 10
120.0
 20
576.0
 30
0.0
 11
150.0
 21
576.0
 31
0.0
  0
LINE
  5
9C
330
17
100
AcDbEntity
  8
TABLE
100
AcDbLine
 10
150.0
 20
576.0
 30
0.0
 11
180.0
 21
576.0
 31
0.0
  0
LINE
  5
9D
330
17
100
AcDbEntity
  8
TABLE
100
AcDbLine
 10
180.0
 20
576.0
 30
0.0
 11
210.0
 21
576.0
 31
0.0
  0
LINE
  5
9E
330
17
100
AcDbEntity
  8
TABLE
100
AcDbLine
 10
210.0
 20
576.0
 30
0.0
 11
240.0
 21
576.0
 31
0.0
  0
LINE
  5
9F
330
17
100
AcDbEntity
  8
TABLE
100
AcDbLine
 10
240.0
 20
576.0
 30
0.0
 11
270.0
 21
576.0
 31
0.0
  0
LINE
  5
A0
330
17
100
AcDbEntity
  8
TABLE
100
AcDbLine
 10
270.0
 20
576.0
 30
0.0
 11
300.0
 21
576.0
 31
0.0
  0
LINE
  5
A1
330
17
100
AcDbEntity
  8
TABLE
100
AcDbLine
 10
300.0
 20
576.0
 30
0.0
 11
330.0
 21
576.0
 31
0.0
  0
LINE
  5
A2
330
17
100
AcDbEntity
  8
TABLE
100
AcDbLine
 10
330.0
 20
576.0
 30
0.0
 11
360.0
 21
576.0
 31
0.0
  0
LINE
  5
A3
330
17
100
AcDbEntity
  8
TABLE
100
AcDbLine
 10
360.0
 20
576.0
 30
0.0
 11
390.0
 21
576.0
 31
0.0
  0
LINE
  5
A4
330
17
100
AcDbEntity
  8
TABLE
100
AcDbLine
 10
390.0
 20
576.0
 30
0.0
 11
420.0
 21
576.0
 31
0.0
  0
LINE
  5
A5
330
17
100
AcDbEntity
  8
TABLE
100
AcDbLine
 10
420.0
 20
576.0
 30
0.0
 11
450.0
 21
576.0
 31
0.0
  0
LINE
  5
A6
330
17
100
AcDbEntity
  8
TABLE
100
AcDbLine
 10
450.0
 20
576.0
 30
0.0
 11
480.0
 21
576.0
 31
0.0
  0
LINE
  5
A7
330
17
100
AcDbEntity
  8
TABLE
100
AcDbLine
 10
480.0
 20
576.0
 30
0.0
 11
510.0
 21
576.0
 31
0.0
  0
LINE
  5
A8
330
17
100
AcDbEntity
  8
TABLE
100
AcDbLine
 10
0.0
 20
672.0
 30
0.0
 11
30.0
 21
672.0
 31
0.0
  0
LINE
  5
A9
330
17
100
AcDbEntity
  8
TABLE
100
AcDbLine
 10
30.0
 20
672.0
 30
0.0
 11
60.0
 21
672.0
 31
0.0
  0
LINE
  5
AA
330
17
100
AcDbEntity
  8
TABLE
100
AcDbLine
 10
60.0
 20
672.0
 30
0.0
 11
90.0
 21
672.0
 31
0.0
  0
LINE
  5
AB
330
17
100
AcDbEntity
  8
TABLE
100
AcDbLine
 10
90.0
 20
672.0
 30
0.0
 11
120.0
 21
672.0
 31
0.0
  0
LINE
  5
AC
330
17
100
AcDbEntity
  8
TABLE
100
AcDbLine
 10
120.0
 20
672.0
 30
0.0
 11
150.0
 21
672.0
 31
0.0
  0
LINE
  5
AD
330
17
100
AcDbEntity
  8
TABLE
100
AcDbLine
 10
150.0
 20
672.0
 30
0.0
 11
180.0
 21
672.0
 31
0.0
  0
LINE
  5
AE
330
17
100
AcDbEntity
  8
TABLE
100
AcDbLine
 10
180.0
 20
672.0
 30
0.0
 11
210.0
 21
672.0
 31
0.0
  0
LINE
  5
AF
330
17
100
AcDbEntity
  8
TABLE
100
AcDbLine
 10
210.0
 20
672.0
 30
0.0
 11
240.0
 21
672.0
 31
0.0
  0
LINE
  5
B0
330
17
100
AcDbEntity
  8
TABLE
100
AcDbLine
 10
240.0
 20
672.0
 30
0.0
 11
270.0
 21
672.0
 31
0.0
  0
LINE
  5
B1
330
17
100
AcDbEntity
  8
TABLE
100
AcDbLine
 10
270.0
 20
672.0
 30
0.0
 11
300.0
 21
672.0
 31
0.0
  0
LINE
  5
B2
330
17
100
AcDbEntity
  8
TABLE
100
AcDbLine
 10
300.0
 20
672.0
 30
0.0
 11
330.0
 21
672.0
 31
0.0
  0
LINE
  5
B3
330
17
100
AcDbEntity
  8
TABLE
100
AcDbLine
 10
330.0
 20
672.0
 30
0.0
 11
360.0
 21
672.0
 31
0.0
  0
LINE
  5
B4
330
17
100
AcDbEntity
  8
TABLE
100
AcDbLine
 10
360.0
 20
672.0
 30
0.0
 11
390.0
 21
672.0
 31
0.0
  0
LINE
  5
B5
330
17
100
AcDbEntity
  8
TABLE
100
AcDbLine
 10
390.0
 20
672.0
 30
0.0
 11
420.0
 21
672.0
 31
0.0
  0
LINE
  5
B6
330
17
100
AcDbEntity
  8
TABLE
100
AcDbLine
 10
420.0
 20
672.0
 30
0.0
 11
450.0
 21
672.0
 31
0.0
  0
LINE
  5
B7
330
17
100
AcDbEntity
  8
TABLE
100
AcDbLine
 10
450.0
 20
672.0
 30
0.0
 11
480.0
 21
672.0
 31
0.0
  0
LINE
  5
B8
330
17
100
AcDbEntity
  8
TABLE
100
AcDbLine
 10
480.0
 20
672.0
 30
0.0
 11
510.0
 21
672.0
 31
0.0
  0
LINE
  5
B9
330
17
100
AcDbEntity
  8
TABLE
100
AcDbLine
 10
0.0
 20
768.0
 30
0.0
 11
30.0
 21
768.0
 31
0.0
  0
LINE
  5
BA
330
17
100
AcDbEntity
  8
TABLE
100
AcDbLine
 10
30.0
 20
768.0
 30
0.0
 11
60.0
 21
768.0
 31
0.0
  0
LINE
  5
BB
330
17
100
AcDbEntity
  8
TABLE
100
AcDbLine
 10
60.0
 20
768.0
 30
0.0
 11
90.0
 21
768.0
 31
0.0
  0
LINE
  5
BC
330
17
100
AcDbEntity
  8
TABLE
100
AcDbLine
 10
90.0
 20
768.0
 30
0.0
 11
120.0
 21
768.0
 31
0.0
  0
LINE
  5
BD
330
17
100
AcDbEntity
  8
TABLE
100
AcDbLine
 10
120.0
 20
768.0
 30
0.0
 11
150.0
 21
768.0
 31
0.0
  0
LINE
  5
BE
330
17
100
AcDbEntity
  8
TABLE
100
AcDbLine
 10
150.0
 20
768.0
 30
0.0
 11
180.0
 21
768.0
 31
0.0
  0
LINE
  5
BF
330
17
100
AcDbEntity
  8
TABLE
100
AcDbLine
 10
180.0
 20
768.0
 30
0.0
 11
210.0
 21
768.0
 31
0.0
  0
LINE
  5
C0
330
17
100
AcDbEntity
  8
TABLE
100
AcDbLine
 10
210.0
 20
768.0
 30
0.0
 11
240.0
 21
768.0
 31
0.0
  0
LINE
  5
C1
330
17
100
AcDbEntity
  8
TABLE
100
AcDbLine
 10
240.0
 20
768.0
 30
0.0
 11
270.0
 21
768.0
 31
0.0
  0
LINE
  5
C2
330
17
100
AcDbEntity
  8
TABLE
100
AcDbLine
 10
270.0
 20
768.0
 30
0.0
 11
300.0
 21
768.0
 31
0.0
  0
LINE
  5
C3
330
17
100
AcDbEntity
  8
TABLE
100
AcDbLine
 10
300.0
 20
768.0
 30
0.0
 11
330.0
 21
768.0
 31
0.0
  0
LINE
  5
C4
330
17
100
AcDbEntity
  8
TABLE
100
AcDbLine
 10
330.0
 20
768.0
 30
0.0
 11
360.0
 21
768.0
 31
0.0
  0
LINE
  5
C5
330
17
100
AcDbEntity
  8
TABLE
100
AcDbLine
 10
360.0
 20
768.0
 30
0.0
 11
390.0
 21
768.0
 31
0.0
  0
LINE
  5
C6
330
17
100
AcDbEntity
  8
TABLE
100
AcDbLine
 10
390.0
 20
768.0
 30
0.0
 11
420.0
 21
768.0
 31
0.0
  0
LINE
  5
C7
330
17
100
AcDbEntity
  8
TABLE
100
AcDbLine
 10
420.0
 20
768.0
 30
0.0
 11
450.0
 21
768.0
 31
0.0
  0
LINE
  5
C8
330
17
100
AcDbEntity
  8
TABLE
100
AcDbLine
 10
450.0
 20
768.0
 30
0.0
 11
480.0
 21
768.0
 31
0.0
  0
LINE
  5
C9
330
17
100
AcDbEntity
  8
TABLE
100
AcDbLine
 10
480.0
 20
768.0
 30
0.0
 11
510.0
 21
768.0
 31
0.0
  0
LINE
  5
CA
330
17
100
AcDbEntity
  8
TABLE
100
AcDbLine
 10
0.0
 20
864.0
 30
0.0
 11
30.0
 21
864.0
 31
0.0
  0
LINE
  5
CB
330
17
100
AcDbEntity
  8
TABLE
100
AcDbLine
 10
30.0
 20
864.0
 30
0.0
 11
60.0
 21
864.0
 31
0.0
  0
LINE
  5
CC
330
17
100
AcDbEntity
  8
TABLE
100
AcDbLine
 10
60.0
 20
864.0
 30
0.0
 11
90.0
 21
864.0
 31
0.0
  0
LINE
  5
CD
330
17
100
AcDbEntity
  8
TABLE
100
AcDbLine
 10
90.0
 20
864.0
 30
0.0
 11
120.0
 21
864.0
 31
0.0
  0
LINE
  5
CE
330
17
100
AcDbEntity
  8
TABLE
100
AcDbLine
 10
120.0
 20
864.0
 30
0.0
 11
150.0
 21
864.0
 31
0.0
  0
LINE
  5
CF
330
17
100
AcDbEntity
  8
TABLE
100
AcDbLine
 10
150.0
 20
864.0
 30
0.0
 11
180.0
 21
864.0
 31
0.0
  0
LINE
  5
D0
330
17
100
AcDbEntity
  8
TABLE
100
AcDbLine
 10
180.0
 20
864.0
 30
0.0
 11
210.0
 21
864.0
 31
0.0
  0
LINE
  5
D1
330
17
100
AcDbEntity
  8
TABLE
100
AcDbLine
 10
210.0
 20
864.0
 30
0.0
 11
240.0
 21
864.0
 31
0.0
  0
LINE
  5
D2
330
17
100
AcDbEntity
  8
TABLE
100
AcDbLine
 10
240.0
 20
864.0
 30
0.0
 11
270.0
 21
864.0
 31
0.0
  0
LINE
  5
D3
330
17
100
AcDbEntity
  8
TABLE
100
AcDbLine
 10
270.0
 20
864.0
 30
0.0
 11
300.0
 21
864.0
 31
0.0
  0
LINE
  5
D4
330
17
100
AcDbEntity
  8
TABLE
100
AcDbLine
 10
300.0
 20
864.0
 30
0.0
 11
330.0
 21
864.0
 31
0.0
  0
LINE
  5
D5
330
17
100
AcDbEntity
  8
TABLE
100
AcDbLine
 10
330.0
 20
864.0
 30
0.0
 11
360.0
 21
864.0
 31
0.0
  0
LINE
  5
D6
330
17
100
AcDbEntity
  8
TABLE
100
AcDbLine
 10
360.0
 20
864.0
 30
0.0
 11
390.0
 21
864.0
 31
0.0
  0
LINE
  5
D7
330
17
100
AcDbEntity
  8
TABLE
100
AcDbLine
 10
390.0
 20
864.0
 30
0.0
 11
420.0
 21
864.0
 31
0.0
  0
LINE
  5
D8
330
17
100
AcDbEntity
  8
TABLE
100
AcDbLine
 10
420.0
 20
864.0
 30
0.0
 11
450.0
 21
864.0
 31
0.0
  0
LINE
  5
D9
330
17
100
AcDbEntity
  8
TABLE
100
AcDbLine
 10
450.0
 20
864.0
 30
0.0
 11
480.0
 21
864.0
 31
0.0
  0
LINE
  5
DA
330
17
100
AcDbEntity
  8
TABLE
100
AcDbLine
 10
480.0
 20
864.0
 30
0.0
 11
510.0
 21
864.0
 31
0.0
  0
LINE
  5
DB
330
17
100
AcDbEntity
  8
TABLE
100
AcDbLine
 10
0.0
 20
960.0
 30
0.0
 11
30.0
 21
960.0
 31
0.0
  0
LINE
  5
DC
330
17
100
AcDbEntity
  8
TABLE
100
AcDbLine
 10
30.0
 20
960.0
 30
0.0
 11
60.0
 21
960.0
 31
0.0
  0
LINE
  5
DD
330
17
100
AcDbEntity
  8
TABLE
100
AcDbLine
 10
60.0
 20
960.0
 30
0.0
 11
90.0
 21
960.0
 31
0.0
  0
LINE
  5
DE
330
17
100
AcDbEntity
  8
TABLE
100
AcDbLine
 10
90.0
 20
960.0
 30
0.0
 11
120.0
 21
960.0
 31
0.0
  0
LINE
  5
DF
330
17
100
AcDbEntity
  8
TABLE
100
AcDbLine
 10
120.0
 20
960.0
 30
0.0
 11
150.0
 21
960.0
 31
0.0
  0
LINE
  5
E0
330
17
100
AcDbEntity
  8
TABLE
100
AcDbLine
 10
150.0
 20
960.0
 30
0.0
 11
180.0
 21
960.0
 31
0.0
  0
LINE
  5
E1
330
17
100
AcDbEntity
  8
TABLE
100
AcDbLine
 10
180.0
 20
960.0
 30
0.0
 11
210.0
 21
960.0
 31
0.0
  0
LINE
  5
E2
330
17
100
AcDbEntity
  8
TABLE
100
AcDbLine
 10
210.0
 20
960.0
 30
0.0
 11
240.0
 21
960.0
 31
0.0
  0
LINE
  5
E3
330
17
100
AcDbEntity
  8
TABLE
100
AcDbLine
 10
240.0
 20
960.0
 30
0.0
 11
270.0
 21
960.0
 31
0.0
  0
LINE
  5
E4
330
17
100
AcDbEntity
  8
TABLE
100
AcDbLine
 10
270.0
 20
960.0
 30
0.0
 11
300.0
 21
960.0
 31
0.0
  0
LINE
  5
E5
330
17
100
AcDbEntity
  8
TABLE
100
AcDbLine
 10
300.0
 20
960.0
 30
0.0
 11
330.0
 21
960.0
 31
0.0
  0
LINE
  5
E6
330
17
100
AcDbEntity
  8
TABLE
100
AcDbLine
 10
330.0
 20
960.0
 30
0.0
 11
360.0
 21
960.0
 31
0.0
  0
LINE
  5
E7
330
17
100
AcDbEntity
  8
TABLE
100
AcDbLine
 10
360.0
 20
960.0
 30
0.0
 11
390.0
 21
960.0
 31
0.0
  0
LINE
  5
E8
330
17
100
AcDbEntity
  8
TABLE
100
AcDbLine
 10
390.0
 20
960.0
 30
0.0
 11
420.0
 21
960.0
 31
0.0
  0
LINE
  5
E9
330
17
100
AcDbEntity
  8
TABLE
100
AcDbLine
 10
420.0
 20
960.0
 30
0.0
 11
450.0
 21
960.0
 31
0.0
  0
LINE
  5
EA
330
17
100
AcDbEntity
  8
TABLE
100
AcDbLine
 10
450.0
 20
960.0
 30
0.0
 11
480.0
 21
960.0
 31
0.0
  0
LINE
  5
EB
330
17
100
AcDbEntity
  8
TABLE
100
AcDbLine
 10
480.0
 20
960.0
 30
0.0
 11
510.0
 21
960.0
 31
0.0
  0
LINE
  5
EC
330
17
100
AcDbEntity
  8
TABLE
100
AcDbLine
 10
0.0
 20
1056.0
 30
0.0
 11
30.0
 21
1056.0
 31
0.0
  0
LINE
  5
ED
330
17
100
AcDbEntity
  8
TABLE
100
AcDbLine
 10
30.0
 20
1056.0
 30
0.0
 11
60.0
 21
1056.0
 31
0.0
  0
LINE
  5
EE
330
17
100
AcDbEntity
  8
TABLE
100
AcDbLine
 10
60.0
 20
1056.0
 30
0.0
 11
90.0
 21
1056.0
 31
0.0
  0
LINE
  5
EF
330
17
100
AcDbEntity
  8
TABLE
100
AcDbLine
 10
90.0
 20
1056.0
 30
0.0
 11
120.0
 21
1056.0
 31
0.0
  0
LINE
  5
F0
330
17
100
AcDbEntity
  8
TABLE
100
AcDbLine
 10
120.0
 20
1056.0
 30
0.0
 11
150.0
 21
1056.0
 31
0.0
  0
LINE
  5
F1
330
17
100
AcDbEntity
  8
TABLE
100
AcDbLine
 10
150.0
 20
1056.0
 30
0.0
 11
180.0
 21
1056.0
 31
0.0
  0
LINE
  5
F2
330
17
100
AcDbEntity
  8
TABLE
100
AcDbLine
 10
180.0
 20
1056.0
 30
0.0
 11
210.0
 21
1056.0
 31
0.0
  0
LINE
  5
F3
330
17
100
AcDbEntity
  8
TABLE
100
AcDbLine
 10
210.0
 20
1056.0
 30
0.0
 11
240.0
 21
1056.0
 31
0.0
  0
LINE
  5
F4
330
17
100
AcDbEntity
  8
TABLE
100
AcDbLine
 10
240.0
 20
1056.0
 30
0.0
 11
270.0
 21
1056.0
 31
0.0
  0
LINE
  5
F5
330
17
100
AcDbEntity
  8
TABLE
100
AcDbLine
 10
270.0
 20
1056.0
 30
0.0
 11
300.0
 21
1056.0
 31
0.0
  0
LINE
  5
F6
330
17
100
AcDbEntity
  8
TABLE
100
AcDbLine
 10
300.0
 20
1056.0
 30
0.0
 11
330.0
 21
1056.0
 31
0.0
  0
LINE
  5
F7
330
17
100
AcDbEntity
  8
TABLE
100
AcDbLine
 10
330.0
 20
1056.0
 30
0.0
 11
360.0
 21
1056.0
 31
0.0
  0
LINE
  5
F8
330
17
100
AcDbEntity
  8
TABLE
100
AcDbLine
 10
360.0
 20
1056.0
 30
0.0
 11
390.0
 21
1056.0
 31
0.0
  0
LINE
  5
F9
330
17
100
AcDbEntity
  8
TABLE
100
AcDbLine
 10
390.0
 20
1056.0
 30
0.0
 11
420.0
 21
1056.0
 31
0.0
  0
LINE
  5
FA
330
17
100
AcDbEntity
  8
TABLE
100
AcDbLine
 10
420.0
 20
1056.0
 30
0.0
 11
450.0
 21
1056.0
 31
0.0
  0
LINE
  5
FB
330
17
100
AcDbEntity
  8
TABLE
100
AcDbLine
 10
450.0
 20
1056.0
 30
0.0
 11
480.0
 21
1056.0
 31
0.0
  0
LINE
  5
FC
330
17
100
AcDbEntity
  8
TABLE
100
AcDbLine
 10
480.0
 20
1056.0
 30
0.0
 11
510.0
 21
1056.0
 31
0.0
  0
LINE
  5
FD
330
17
100
AcDbEntity
  8
TABLE
100
AcDbLine
 10
0.0
 20
0.0
 30
0.0
 11
0.0
 21
96.0
 31
0.0
  0
LINE
  5
FE
330
17
100
AcDbEntity
  8
TABLE
100
AcDbLine
 10
0.0
 20
96.0
 30
0.0
 11
0.0
 21
192.0
 31
0.0
  0
LINE
  5
FF
330
17
100
AcDbEntity
  8
TABLE
100
AcDbLine
 10
0.0
 20
192.0
 30
0.0
 11
0.0
 21
288.0
 31
0.0
  0
LINE
  5
100
330
17
100
AcDbEntity
  8
TABLE
100
AcDbLine
 10
0.0
 20
288.0
 30
0.0
 11
0.0
 21
384.0
 31
0.0
  0
LINE
  5
101
330
17
100
AcDbEntity
  8
TABLE
100
AcDbLine
 10
0.0
 20
384.0
 30
0.0
 11
0.0
 21
480.0
 31
0.0
  0
LINE
  5
102
330
17
100
AcDbEntity
  8
TABLE
100
AcDbLine
 10
0.0
 20
480.0
 30
0.0
 11
0.0
 21
576.0
 31
0.0
  0
LINE
  5
103
330
17
100
AcDbEntity
  8
TABLE
100
AcDbLine
 10
0.0
 20
576.0
 30
0.0
 11
0.0
 21
672.0
 31
0.0
  0
LINE
  5
104
330
17
100
AcDbEntity
  8
TABLE
100
AcDbLine
 10
0.0
 20
672.0
 30
0.0
 11
0.0
 21
768.0
 31
0.0
  0
LINE
  5
105
330
17
100
AcDbEntity
  8
TABLE
100
AcDbLine
 10
0.0
 20
768.0
 30
0.0
 11
0.0
 21
864.0
 31
0.0
  0
LINE
  5
106
330
17
100
AcDbEntity
  8
TABLE
100
AcDbLine
 10
0.0
 20
864.0
 30
0.0
 11
0.0
 21
960.0
 31
0.0
  0
LINE
  5
107
330
17
100
AcDbEntity
  8
TABLE
100
AcDbLine
 10
0.0
 20
960.0
 30
0.0
 11
0.0
 21
1056.0
 31
0.0
  0
LINE
  5
108
330
17
100
AcDbEntity
  8
TABLE
100
AcDbLine
 10
30.0
 20
0.0
 30
0.0
 11
30.0
 21
96.0
 31
0.0
  0
LINE
  5
109
330
17
100
AcDbEntity
  8
TABLE
100
AcDbLine
 10
30.0
 20
96.0
 30
0.0
 11
30.0
 21
192.0
 31
0.0
  0
LINE
  5
10A
330
17
100
AcDbEntity
  8
TABLE
100
AcDbLine
 10
30.0
 20
192.0
 30
0.0
 11
30.0
 21
288.0
 31
0.0
  0
LINE
  5
10B
330
17
100
AcDbEntity
  8
TABLE
100
AcDbLine
 10
30.0
 20
288.0
 30
0.0
 11
30.0
 21
384.0
 31
0.0
  0
LINE
  5
10C
330
17
100
AcDbEntity
  8
TABLE
100
AcDbLine
 10
30.0
 20
384.0
 30
0.0
 11
30.0
 21
480.0
 31
0.0
  0
LINE
  5
10D
330
17
100
AcDbEntity
  8
TABLE
100
AcDbLine
 10
30.0
 20
480.0
 30
0.0
 11
30.0
 21
576.0
 31
0.0
  0
LINE
  5
10E
330
17
100
AcDbEntity
  8
TABLE
100
AcDbLine
 10
30.0
 20
576.0
 30
0.0
 11
30.0
 21
672.0
 31
0.0
  0
LINE
  5
10F
330
17
100
AcDbEntity
  8
TABLE
100
AcDbLine
 10
30.0
 20
672.0
 30
0.0
 11
30.0
 21
768.0
 31
0.0
  0
LINE
  5
110
330
17
100
AcDbEntity
  8
TABLE
100
AcDbLine
 10
30.0
 20
768.0
 30
0.0
 11
30.0
 21
864.0
 31
0.0
  0
LINE
  5
111
330
17
100
AcDbEntity
  8
TABLE
100
AcDbLine
 10
30.0
 20
864.0
 30
0.0
 11
30.0
 21
960.0
 31
0.0
  0
LINE
  5
112
330
17
100
AcDbEntity
  8
TABLE
100
AcDbLine
 10
30.0
 20
960.0
 30
0.0
 11
30.0
 21
1056.0
 31
0.0
  0
LINE
  5
113
330
17
100
AcDbEntity
  8
TABLE
100
AcDbLine
 10
60.0
 20
0.0
 30
0.0
 11
60.0
 21
96.0
 31
0.0
  0
LINE
  5
114
330
17
100
AcDbEntity
  8
TABLE
100
AcDbLine
 10
60.0
 20
96.0
 30
0.0
 11
60.0
 21
192.0
 31
0.0
  0
LINE
  5
115
330
17
100
AcDbEntity
  8
TABLE
100
AcDbLine
 10
60.0
 20
192.0
 30
0.0
 11
60.0
 21
288.0
 31
0.0
  0
LINE
  5
116
330
17
100
AcDbEntity
  8
TABLE
100
AcDbLine
 10
60.0
 20
288.0
 30
0.0
 11
60.0
 21
384.0
 31
0.0
  0
LINE
  5
117
330
17
100
AcDbEntity
  8
TABLE
100
AcDbLine
 10
60.0
 20
384.0
 30
0.0
 11
60.0
 21
480.0
 31
0.0
  0
LINE
  5
118
330
17
100
AcDbEntity
  8
TABLE
100
AcDbLine
 10
60.0
 20
480.0
 30
0.0
 11
60.0
 21
576.0
 31
0.0
  0
LINE
  5
119
330
17
100
AcDbEntity
  8
TABLE
100
AcDbLine
 10
60.0
 20
576.0
 30
0.0
 11
60.0
 21
672.0
 31
0.0
  0
LINE
  5
11A
330
17
100
AcDbEntity
  8
TABLE
100
AcDbLine
 10
60.0
 20
672.0
 30
0.0
 11
60.0
 21
768.0
 31
0.0
  0
LINE
  5
11B
330
17
100
AcDbEntity
  8
TABLE
100
AcDbLine
 10
60.0
 20
768.0
 30
0.0
 11
60.0
 21
864.0
 31
0.0
  0
LINE
  5
11C
330
17
100
AcDbEntity
  8
TABLE
100
AcDbLine
 10
60.0
 20
864.0
 30
0.0
 11
60.0
 21
960.0
 31
0.0
  0
LINE
  5
11D
330
17
100
AcDbEntity
  8
TABLE
100
AcDbLine
 10
60.0
 20
960.0
 30
0.0
 11
60.0
 21
1056.0
 31
0.0
  0
LINE
  5
11E
330
17
100
AcDbEntity
  8
TABLE
100
AcDbLine
 10
90.0
 20
0.0
 30
0.0
 11
90.0
 21
96.0
 31
0.0
  0
LINE
  5
11F
330
17
100
AcDbEntity
  8
TABLE
100
AcDbLine
 10
90.0
 20
96.0
 30
0.0
 11
90.0
 21
192.0
 31
0.0
  0
LINE
  5
120
330
17
100
AcDbEntity
  8
TABLE
100
AcDbLine
 10
90.0
 20
192.0
 30
0.0
 11
90.0
 21
288.0
 31
0.0
  0
LINE
  5
121
330
17
100
AcDbEntity
  8
TABLE
100
AcDbLine
 10
90.0
 20
288.0
 30
0.0
 11
90.0
 21
384.0
 31
0.0
  0
LINE
  5
122
330
17
100
AcDbEntity
  8
TABLE
100
AcDbLine
 10
90.0
 20
384.0
 30
0.0
 11
90.0
 21
480.0
 31
0.0
  0
LINE
  5
123
330
17
100
AcDbEntity
  8
TABLE
100
AcDbLine
 10
90.0
 20
480.0
 30
0.0
 11
90.0
 21
576.0
 31
0.0
  0
LINE
  5
124
330
17
100
AcDbEntity
  8
TABLE
100
AcDbLine
 10
90.0
 20
576.0
 30
0.0
 11
90.0
 21
672.0
 31
0.0
  0
LINE
  5
125
330
17
100
AcDbEntity
  8
TABLE
100
AcDbLine
 10
90.0
 20
672.0
 30
0.0
 11
90.0
 21
768.0
 31
0.0
  0
LINE
  5
126
330
17
100
AcDbEntity
  8
TABLE
100
AcDbLine
 10
90.0
 20
768.0
 30
0.0
 11
90.0
 21
864.0
 31
0.0
  0
LINE
  5
127
330
17
100
AcDbEntity
  8
TABLE
100
AcDbLine
 10
90.0
 20
864.0
 30
0.0
 11
90.0
 21
960.0
 31
0.0
  0
LINE
  5
128
330
17
100
AcDbEntity
  8
TABLE
100
AcDbLine
 10
90.0
 20
960.0
 30
0.0
 11
90.0
 21
1056.0
 31
0.0
  0
LINE
  5
129
330
17
100
AcDbEntity
  8
TABLE
100
AcDbLine
 10
120.0
 20
0.0
 30
0.0
 11
120.0
 21
96.0
 31
0.0
  0
LINE
  5
12A
330
17
100
AcDbEntity
  8
TABLE
100
AcDbLine
 10
120.0
 20
96.0
 30
0.0
 11
120.0
 21
192.0
 31
0.0
  0
LINE
  5
12B
330
17
100
AcDbEntity
  8
TABLE
100
AcDbLine
 10
120.0
 20
192.0
 30
0.0
 11
120.0
 21
288.0
 31
0.0
  0
LINE
  5
12C
330
17
100
AcDbEntity
  8
TABLE
100
AcDbLine
 10
120.0
 20
288.0
 30
0.0
 11
120.0
 21
384.0
 31
0.0
  0
LINE
  5
12D
330
17
100
AcDbEntity
  8
TABLE
100
AcDbLine
 10
120.0
 20
384.0
 30
0.0
 11
120.0
 21
480.0
 31
0.0
  0
LINE
  5
12E
330
17
100
AcDbEntity
  8
TABLE
100
AcDbLine
 10
120.0
 20
480.0
 30
0.0
 11
120.0
 21
576.0
 31
0.0
  0
LINE
  5
12F
330
17
100
AcDbEntity
  8
TABLE
100
AcDbLine
 10
120.0
 20
576.0
 30
0.0
 11
120.0
 21
672.0
 31
0.0
  0
LINE
  5
130
330
17
100
AcDbEntity
  8
TABLE
100
AcDbLine
 10
120.0
 20
672.0
 30
0.0
 11
120.0
 21
768.0
 31
0.0
  0
LINE
  5
131
330
17
100
AcDbEntity
  8
TABLE
100
AcDbLine
 10
120.0
 20
768.0
 30
0.0
 11
120.0
 21
864.0
 31
0.0
  0
LINE
  5
132
330
17
100
AcDbEntity
  8
TABLE
100
AcDbLine
 10
120.0
 20
864.0
 30
0.0
 11
120.0
 21
960.0
 31
0.0
  0
LINE
  5
133
330
17
100
AcDbEntity
  8
TABLE
100
AcDbLine
 10
120.0
 20
960.0
 30
0.0
 11
120.0
 21
1056.0
 31
0.0
  0
LINE
  5
134
330
17
100
AcDbEntity
  8
TABLE
100
AcDbLine
 10
150.0
 20
0.0
 30
0.0
 11
150.0
 21
96.0
 31
0.0
  0
LINE
  5
135
330
17
100
AcDbEntity
  8
TABLE
100
AcDbLine
 10
150.0
 20
96.0
 30
0.0
 11
150.0
 21
192.0
 31
0.0
  0
LINE
  5
136
330
17
100
AcDbEntity
  8
TABLE
100
AcDbLine
 10
150.0
 20
192.0
 30
0.0
 11
150.0
 21
288.0
 31
0.0
  0
LINE
  5
137
330
17
100
AcDbEntity
  8
TABLE
100
AcDbLine
 10
150.0
 20
288.0
 30
0.0
 11
150.0
 21
384.0
 31
0.0
  0
LINE
  5
138
330
17
100
AcDbEntity
  8
TABLE
100
AcDbLine
 10
150.0
 20
384.0
 30
0.0
 11
150.0
 21
480.0
 31
0.0
  0
LINE
  5
139
330
17
100
AcDbEntity
  8
TABLE
100
AcDbLine
 10
150.0
 20
480.0
 30
0.0
 11
150.0
 21
576.0
 31
0.0
  0
LINE
  5
13A
330
17
100
AcDbEntity
  8
TABLE
100
AcDbLine
 10
150.0
 20
576.0
 30
0.0
 11
150.0
 21
672.0
 31
0.0
  0
LINE
  5
13B
330
17
100
AcDbEntity
  8
TABLE
100
AcDbLine
 10
150.0
 20
672.0
 30
0.0
 11
150.0
 21
768.0
 31
0.0
  0
LINE
  5
13C
330
17
100
AcDbEntity
  8
TABLE
100
AcDbLine
 10
150.0
 20
768.0
 30
0.0
 11
150.0
 21
864.0
 31
0.0
  0
LINE
  5
13D
330
17
100
AcDbEntity
  8
TABLE
100
AcDbLine
 10
150.0
 20
864.0
 30
0.0
 11
150.0
 21
960.0
 31
0.0
  0
LINE
  5
13E
330
17
100
AcDbEntity
  8
TABLE
100
AcDbLine
 10
150.0
 20
960.0
 30
0.0
 11
150.0
 21
1056.0
 31
0.0
  0
LINE
  5
13F
330
17
100
AcDbEntity
  8
TABLE
100
AcDbLine
 10
180.0
 20
0.0
 30
0.0
 11
180.0
 21
96.0
 31
0.0
  0
LINE
  5
140
330
17
100
AcDbEntity
  8
TABLE
100
AcDbLine
 10
180.0
 20
96.0
 30
0.0
 11
180.0
 21
192.0
 31
0.0
  0
LINE
  5
141
330
17
100
AcDbEntity
  8
TABLE
100
AcDbLine
 10
180.0
 20
192.0
 30
0.0
 11
180.0
 21
288.0
 31
0.0
  0
LINE
  5
142
330
17
100
AcDbEntity
  8
TABLE
100
AcDbLine
 10
180.0
 20
288.0
 30
0.0
 11
180.0
 21
384.0
 31
0.0
  0
LINE
  5
143
330
17
100
AcDbEntity
  8
TABLE
100
AcDbLine
 10
180.0
 20
384.0
 30
0.0
 11
180.0
 21
480.0
 31
0.0
  0
LINE
  5
144
330
17
100
AcDbEntity
  8
TABLE
100
AcDbLine
 10
180.0
 20
480.0
 30
0.0
 11
180.0
 21
576.0
 31
0.0
  0
LINE
  5
145
330
17
100
AcDbEntity
  8
TABLE
100
AcDbLine
 10
180.0
 20
576.0
 30
0.0
 11
180.0
 21
672.0
 31
0.0
  0
LINE
  5
146
330
17
100
AcDbEntity
  8
TABLE
100
AcDbLine
 10
180.0
 20
672.0
 30
0.0
 11
180.0
 21
768.0
 31
0.0
  0
LINE
  5
147
330
17
100
AcDbEntity
  8
TABLE
100
AcDbLine
 10
180.0
 20
768.0
 30
0.0
 11
180.0
 21
864.0
 31
0.0
  0
LINE
  5
148
330
17
100
AcDbEntity
  8
TABLE
100
AcDbLine
 10
180.0
 20
864.0
 30
0.0
 11
180.0
 21
960.0
 31
0.0
  0
LINE
  5
149
330
17
100
AcDbEntity
  8
TABLE
100
AcDbLine
 10
180.0
 20
960.0
 30
0.0
 11
180.0
 21
1056.0
 31
0.0
  0
LINE
  5
14A
330
17
100
AcDbEntity
  8
TABLE
100
AcDbLine
 10
210.0
 20
0.0
 30
0.0
 11
210.0
 21
96.0
 31
0.0
  0
LINE
  5
14B
330
17
100
AcDbEntity
  8
TABLE
100
AcDbLine
 10
210.0
 20
96.0
 30
0.0
 11
210.0
 21
192.0
 31
0.0
  0
LINE
  5
14C
330
17
100
AcDbEntity
  8
TABLE
100
AcDbLine
 10
210.0
 20
192.0
 30
0.0
 11
210.0
 21
288.0
 31
0.0
  0
LINE
  5
14D
330
17
100
AcDbEntity
  8
TABLE
100
AcDbLine
 10
210.0
 20
288.0
 30
0.0
 11
210.0
 21
384.0
 31
0.0
  0
LINE
  5
14E
330
17
100
AcDbEntity
  8
TABLE
100
AcDbLine
 10
210.0
 20
384.0
 30
0.0
 11
210.0
 21
480.0
 31
0.0
  0
LINE
  5
14F
330
17
100
AcDbEntity
  8
TABLE
100
AcDbLine
 10
210.0
 20
480.0
 30
0.0
 11
210.0
 21
576.0
 31
0.0
  0
LINE
  5
150
330
17
100
AcDbEntity
  8
TABLE
100
AcDbLine
 10
210.0
 20
576.0
 30
0.0
 11
210.0
 21
672.0
 31
0.0
  0
LINE
  5
151
330
17
100
AcDbEntity
  8
TABLE
100
AcDbLine
 10
210.0
 20
672.0
 30
0.0
 11
210.0
 21
768.0
 31
0.0
  0
LINE
  5
152
330
17
100
AcDbEntity
  8
TABLE
100
AcDbLine
 10
210.0
 20
768.0
 30
0.0
 11
210.0
 21
864.0
 31
0.0
  0
LINE
  5
153
330
17
100
AcDbEntity
  8
TABLE
100
AcDbLine
 10
210.0
 20
864.0
 30
0.0
 11
210.0
 21
960.0
 31
0.0
  0
LINE
  5
154
330
17
100
AcDbEntity
  8
TABLE
100
AcDbLine
 10
210.0
 20
960.0
 30
0.0
 11
210.0
 21
1056.0
 31
0.0
  0
LINE
  5
155
330
17
100
AcDbEntity
  8
TABLE
100
AcDbLine
 10
240.0
 20
0.0
 30
0.0
 11
240.0
 21
96.0
 31
0.0
  0
LINE
  5
156
330
17
100
AcDbEntity
  8
TABLE
100
AcDbLine
 10
240.0
 20
96.0
 30
0.0
 11
240.0
 21
192.0
 31
0.0
  0
LINE
  5
157
330
17
100
AcDbEntity
  8
TABLE
100
AcDbLine
 10
240.0
 20
192.0
 30
0.0
 11
240.0
 21
288.0
 31
0.0
  0
LINE
  5
158
330
17
100
AcDbEntity
  8
TABLE
100
AcDbLine
 10
240.0
 20
288.0
 30
0.0
 11
240.0
 21
384.0
 31
0.0
  0
LINE
  5
159
330
17
100
AcDbEntity
  8
TABLE
100
AcDbLine
 10
240.0
 20
384.0
 30
0.0
 11
240.0
 21
480.0
 31
0.0
  0
LINE
  5
15A
330
17
100
AcDbEntity
  8
TABLE
100
AcDbLine
 10
240.0
 20
480.0
 30
0.0
 11
240.0
 21
576.0
 31
0.0
  0
LINE
  5
15B
330
17
100
AcDbEntity
  8
TABLE
100
AcDbLine
 10
240.0
 20
576.0
 30
0.0
 11
240.0
 21
672.0
 31
0.0
  0
LINE
  5
15C
330
17
100
AcDbEntity
  8
TABLE
100
AcDbLine
 10
240.0
 20
672.0
 30
0.0
 11
240.0
 21
768.0
 31
0.0
  0
LINE
  5
15D
330
17
100
AcDbEntity
  8
TABLE
100
AcDbLine
 10
240.0
 20
768.0
 30
0.0
 11
240.0
 21
864.0
 31
0.0
  0
LINE
  5
15E
330
17
100
AcDbEntity
  8
TABLE
100
AcDbLine
 10
240.0
 20
864.0
 30
0.0
 11
240.0
 21
960.0
 31
0.0
  0
LINE
  5
15F
330
17
100
AcDbEntity
  8
TABLE
100
AcDbLine
 10
240.0
 20
960.0
 30
0.0
 11
240.0
 21
1056.0
 31
0.0
  0
LINE
  5
160
330
17
100
AcDbEntity
  8
TABLE
100
AcDbLine
 10
270.0
 20
0.0
 30
0.0
 11
270.0
 21
96.0
 31
0.0
  0
LINE
  5
161
330
17
100
AcDbEntity
  8
TABLE
100
AcDbLine
 10
270.0
 20
96.0
 30
0.0
 11
270.0
 21
192.0
 31
0.0
  0
LINE
  5
162
330
17
100
AcDbEntity
  8
TABLE
100
AcDbLine
 10
270.0
 20
192.0
 30
0.0
 11
270.0
 21
288.0
 31
0.0
  0
LINE
  5
163
330
17
100
AcDbEntity
  8
TABLE
100
AcDbLine
 10
270.0
 20
288.0
 30
0.0
 11
270.0
 21
384.0
 31
0.0
  0
LINE
  5
164
330
17
100
AcDbEntity
  8
TABLE
100
AcDbLine
 10
270.0
 20
384.0
 30
0.0
 11
270.0
 21
480.0
 31
0.0
  0
LINE
  5
165
330
17
100
AcDbEntity
  8
TABLE
100
AcDbLine
 10
270.0
 20
480.0
 30
0.0
 11
270.0
 21
576.0
 31
0.0
  0
LINE
  5
166
330
17
100
AcDbEntity
  8
TABLE
100
AcDbLine
 10
270.0
 20
576.0
 30
0.0
 11
270.0
 21
672.0
 31
0.0
  0
LINE
  5
167
330
17
100
AcDbEntity
  8
TABLE
100
AcDbLine
 10
270.0
 20
672.0
 30
0.0
 11
270.0
 21
768.0
 31
0.0
  0
LINE
  5
168
330
17
100
AcDbEntity
  8
TABLE
100
AcDbLine
 10
270.0
 20
768.0
 30
0.0
 11
270.0
 21
864.0
 31
0.0
  0
LINE
  5
169
330
17
100
AcDbEntity
  8
TABLE
100
AcDbLine
 10
270.0
 20
864.0
 30
0.0
 11
270.0
 21
960.0
 31
0.0
  0
LINE
  5
16A
330
17
100
AcDbEntity
  8
TABLE
100
AcDbLine
 10
270.0
 20
960.0
 30
0.0
 11
270.0
 21
1056.0
 31
0.0
  0
LINE
  5
16B
330
17
100
AcDbEntity
  8
TABLE
100
AcDbLine
 10
300.0
 20
0.0
 30
0.0
 11
300.0
 21
96.0
 31
0.0
  0
LINE
  5
16C
330
17
100
AcDbEntity
  8
TABLE
100
AcDbLine
 10
300.0
 20
96.0
 30
0.0
 11
300.0
 21
192.0
 31
0.0
  0
LINE
  5
16D
330
17
100
AcDbEntity
  8
TABLE
100
AcDbLine
 10
300.0
 20
192.0
 30
0.0
 11
300.0
 21
288.0
 31
0.0
  0
LINE
  5
16E
330
17
100
AcDbEntity
  8
TABLE
100
AcDbLine
 10
300.0
 20
288.0
 30
0.0
 11
300.0
 21
384.0
 31
0.0
  0
LINE
  5
16F
330
17
100
AcDbEntity
  8
TABLE
100
AcDbLine
 10
300.0
 20
384.0
 30
0.0
 11
300.0
 21
480.0
 31
0.0
  0
LINE
  5
170
330
17
100
AcDbEntity
  8
TABLE
100
AcDbLine
 10
300.0
 20
480.0
 30
0.0
 11
300.0
 21
576.0
 31
0.0
  0
LINE
  5
171
330
17
100
AcDbEntity
  8
TABLE
100
AcDbLine
 10
300.0
 20
576.0
 30
0.0
 11
300.0
 21
672.0
 31
0.0
  0
LINE
  5
172
330
17
100
AcDbEntity
  8
TABLE
100
AcDbLine
 10
300.0
 20
672.0
 30
0.0
 11
300.0
 21
768.0
 31
0.0
  0
LINE
  5
173
330
17
100
AcDbEntity
  8
TABLE
100
AcDbLine
 10
300.0
 20
768.0
 30
0.0
 11
300.0
 21
864.0
 31
0.0
  0
LINE
  5
174
330
17
100
AcDbEntity
  8
TABLE
100
AcDbLine
 10
300.0
 20
864.0
 30
0.0
 11
300.0
 21
960.0
 31
0.0
  0
LINE
  5
175
330
17
100
AcDbEntity
  8
TABLE
100
AcDbLine
 10
300.0
 20
960.0
 30
0.0
 11
300.0
 21
1056.0
 31
0.0
  0
LINE
  5
176
330
17
100
AcDbEntity
  8
TABLE
100
AcDbLine
 10
330.0
 20
0.0
 30
0.0
 11
330.0
 21
96.0
 31
0.0
  0
LINE
  5
177
330
17
100
AcDbEntity
  8
TABLE
100
AcDbLine
 10
330.0
 20
96.0
 30
0.0
 11
330.0
 21
192.0
 31
0.0
  0
LINE
  5
178
330
17
100
AcDbEntity
  8
TABLE
100
AcDbLine
 10
330.0
 20
192.0
 30
0.0
 11
330.0
 21
288.0
 31
0.0
  0
LINE
  5
179
330
17
100
AcDbEntity
  8
TABLE
100
AcDbLine
 10
330.0
 20
288.0
 30
0.0
 11
330.0
 21
384.0
 31
0.0
  0
LINE
  5
17A
330
17
100
AcDbEntity
  8
TABLE
100
AcDbLine
 10
330.0
 20
384.0
 30
0.0
 11
330.0
 21
480.0
 31
0.0
  0
LINE
  5
17B
330
17
100
AcDbEntity
  8
TABLE
100
AcDbLine
 10
330.0
 20
480.0
 30
0.0
 11
330.0
 21
576.0
 31
0.0
  0
LINE
  5
17C
330
17
100
AcDbEntity
  8
TABLE
100
AcDbLine
 10
330.0
 20
576.0
 30
0.0
 11
330.0
 21
672.0
 31
0.0
  0
LINE
  5
17D
330
17
100
AcDbEntity
  8
TABLE
100
AcDbLine
 10
330.0
 20
672.0
 30
0.0
 11
330.0
 21
768.0
 31
0.0
  0
LINE
  5
17E
330
17
100
AcDbEntity
  8
TABLE
100
AcDbLine
 10
330.0
 20
768.0
 30
0.0
 11
330.0
 21
864.0
 31
0.0
  0
LINE
  5
17F
330
17
100
AcDbEntity
  8
TABLE
100
AcDbLine
 10
330.0
 20
864.0
 30
0.0
 11
330.0
 21
960.0
 31
0.0
  0
LINE
  5
180
330
17
100
AcDbEntity
  8
TABLE
100
AcDbLine
 10
330.0
 20
960.0
 30
0.0
 11
330.0
 21
1056.0
 31
0.0
  0
LINE
  5
181
330
17
100
AcDbEntity
  8
TABLE
100
AcDbLine
 10
360.0
 20
0.0
 30
0.0
 11
360.0
 21
96.0
 31
0.0
  0
LINE
  5
182
330
17
100
AcDbEntity
  8
TABLE
100
AcDbLine
 10
360.0
 20
96.0
 30
0.0
 11
360.0
 21
192.0
 31
0.0
  0
LINE
  5
183
330
17
100
AcDbEntity
  8
TABLE
100
AcDbLine
 10
360.0
 20
192.0
 30
0.0
 11
360.0
 21
288.0
 31
0.0
  0
LINE
  5
184
330
17
100
AcDbEntity
  8
TABLE
100
AcDbLine
 10
360.0
 20
288.0
 30
0.0
 11
360.0
 21
384.0
 31
0.0
  0
LINE
  5
185
330
17
100
AcDbEntity
  8
TABLE
100
AcDbLine
 10
360.0
 20
384.0
 30
0.0
 11
360.0
 21
480.0
 31
0.0
  0
LINE
  5
186
330
17
100
AcDbEntity
  8
TABLE
100
AcDbLine
 10
360.0
 20
480.0
 30
0.0
 11
360.0
 21
576.0
 31
0.0
  0
LINE
  5
187
330
17
100
AcDbEntity
  8
TABLE
100
AcDbLine
 10
360.0
 20
576.0
 30
0.0
 11
360.0
 21
672.0
 31
0.0
  0
LINE
  5
188
330
17
100
AcDbEntity
  8
TABLE
100
AcDbLine
 10
360.0
 20
672.0
 30
0.0
 11
360.0
 21
768.0
 31
0.0
  0
LINE
  5
189
330
17
100
AcDbEntity
  8
TABLE
100
AcDbLine
 10
360.0
 20
768.0
 30
0.0
 11
360.0
 21
864.0
 31
0.0
  0
LINE
  5
18A
330
17
100
AcDbEntity
  8
TABLE
100
AcDbLine
 10
360.0
 20
864.0
 30
0.0
 11
360.0
 21
960.0
 31
0.0
  0
LINE
  5
18B
330
17
100
AcDbEntity
  8
TABLE
100
AcDbLine
 10
360.0
 20
960.0
 30
0.0
 11
360.0
 21
1056.0
 31
0.0
  0
LINE
  5
18C
330
17
100
AcDbEntity
  8
TABLE
100
AcDbLine
 10
390.0
 20
0.0
 30
0.0
 11
390.0
 21
96.0
 31
0.0
  0
LINE
  5
18D
330
17
100
AcDbEntity
  8
TABLE
100
AcDbLine
 10
390.0
 20
96.0
 30
0.0
 11
390.0
 21
192.0
 31
0.0
  0
LINE
  5
18E
330
17
100
AcDbEntity
  8
TABLE
100
AcDbLine
 10
390.0
 20
192.0
 30
0.0
 11
390.0
 21
288.0
 31
0.0
  0
LINE
  5
18F
330
17
100
AcDbEntity
  8
TABLE
100
AcDbLine
 10
390.0
 20
288.0
 30
0.0
 11
390.0
 21
384.0
 31
0.0
  0
LINE
  5
190
330
17
100
AcDbEntity
  8
TABLE
100
AcDbLine
 10
390.0
 20
384.0
 30
0.0
 11
390.0
 21
480.0
 31
0.0
  0
LINE
  5
191
330
17
100
AcDbEntity
  8
TABLE
100
AcDbLine
 10
390.0
 20
480.0
 30
0.0
 11
390.0
 21
576.0
 31
0.0
  0
LINE
  5
192
330
17
100
AcDbEntity
  8
TABLE
100
AcDbLine
 10
390.0
 20
576.0
 30
0.0
 11
390.0
 21
672.0
 31
0.0
  0
LINE
  5
193
330
17
100
AcDbEntity
  8
TABLE
100
AcDbLine
 10
390.0
 20
672.0
 30
0.0
 11
390.0
 21
768.0
 31
0.0
  0
LINE
  5
194
330
17
100
AcDbEntity
  8
TABLE
100
AcDbLine
 10
390.0
 20
768.0
 30
0.0
 11
390.0
 21
864.0
 31
0.0
  0
LINE
  5
195
330
17
100
AcDbEntity
  8
TABLE
100
AcDbLine
 10
390.0
 20
864.0
 30
0.0
 11
390.0
 21
960.0
 31
0.0
  0
LINE
  5
196
330
17
100
AcDbEntity
  8
TABLE
100
AcDbLine
 10
390.0
 20
960.0
 30
0.0
 11
390.0
 21
1056.0
 31
0.0
  0
LINE
  5
197
330
17
100
AcDbEntity
  8
TABLE
100
AcDbLine
 10
420.0
 20
0.0
 30
0.0
 11
420.0
 21
96.0
 31
0.0
  0
LINE
  5
198
330
17
100
AcDbEntity
  8
TABLE
100
AcDbLine
 10
420.0
 20
96.0
 30
0.0
 11
420.0
 21
192.0
 31
0.0
  0
LINE
  5
199
330
17
100
AcDbEntity
  8
TABLE
100
AcDbLine
 10
420.0
 20
192.0
 30
0.0
 11
420.0
 21
288.0
 31
0.0
  0
LINE
  5
19A
330
17
100
AcDbEntity
  8
TABLE
100
AcDbLine
 10
420.0
 20
288.0
 30
0.0
 11
420.0
 21
384.0
 31
0.0
  0
LINE
  5
19B
330
17
100
AcDbEntity
  8
TABLE
100
AcDbLine
 10
420.0
 20
384.0
 30
0.0
 11
420.0
 21
480.0
 31
0.0
  0
LINE
  5
19C
330
17
100
AcDbEntity
  8
TABLE
100
AcDbLine
 10
420.0
 20
480.0
 30
0.0
 11
420.0
 21
576.0
 31
0.0
  0
LINE
  5
19D
330
17
100
AcDbEntity
  8
TABLE
100
AcDbLine
 10
420.0
 20
576.0
 30
0.0
 11
420.0
 21
672.0
 31
0.0
  0
LINE
  5
19E
330
17
100
AcDbEntity
  8
TABLE
100
AcDbLine
 10
420.0
 20
672.0
 30
0.0
 11
420.0
 21
768.0
 31
0.0
  0
LINE
  5
19F
330
17
100
AcDbEntity
  8
TABLE
100
AcDbLine
 10
420.0
 20
768.0
 30
0.0
 11
420.0
 21
864.0
 31
0.0
  0
LINE
  5
1A0
330
17
100
AcDbEntity
  8
TABLE
100
AcDbLine
 10
420.0
 20
864.0
 30
0.0
 11
420.0
 21
960.0
 31
0.0
  0
LINE
  5
1A1
330
17
100
AcDbEntity
  8
TABLE
100
AcDbLine
 10
420.0
 20
960.0
 30
0.0
 11
420.0
 21
1056.0
 31
0.0
  0
LINE
  5
1A2
330
17
100
AcDbEntity
  8
TABLE
100
AcDbLine
 10
450.0
 20
0.0
 30
0.0
 11
450.0
 21
96.0
 31
0.0
  0
LINE
  5
1A3
330
17
100
AcDbEntity
  8
TABLE
100
AcDbLine
 10
450.0
 20
96.0
 30
0.0
 11
450.0
 21
192.0
 31
0.0
  0
LINE
  5
1A4
330
17
100
AcDbEntity
  8
TABLE
100
AcDbLine
 10
450.0
 20
192.0
 30
0.0
 11
450.0
 21
288.0
 31
0.0
  0
LINE
  5
1A5
330
17
100
AcDbEntity
  8
TABLE
100
AcDbLine
 10
450.0
 20
288.0
 30
0.0
 11
450.0
 21
384.0
 31
0.0
  0
LINE
  5
1A6
330
17
100
AcDbEntity
  8
TABLE
100
AcDbLine
 10
450.0
 20
384.0
 30
0.0
 11
450.0
 21
480.0
 31
0.0
  0
LINE
  5
1A7
330
17
100
AcDbEntity
  8
TABLE
100
AcDbLine
 10
450.0
 20
480.0
 30
0.0
 11
450.0
 21
576.0
 31
0.0
  0
LINE
  5
1A8
330
17
100
AcDbEntity
  8
TABLE
100
AcDbLine
 10
450.0
 20
576.0
 30
0.0
 11
450.0
 21
672.0
 31
0.0
  0
LINE
  5
1A9
330
17
100
AcDbEntity
  8
TABLE
100
AcDbLine
 10
450.0
 20
672.0
 30
0.0
 11
450.0
 21
768.0
 31
0.0
  0
LINE
  5
1AA
330
17
100
AcDbEntity
  8
TABLE
100
AcDbLine
 10
450.0
 20
768.0
 30
0.0
 11
450.0
 21
864.0
 31
0.0
  0
LINE
  5
1AB
330
17
100
AcDbEntity
  8
TABLE
100
AcDbLine
 10
450.0
 20
864.0
 30
0.0
 11
450.0
 21
960.0
 31
0.0
  0
LINE
  5
1AC
330
17
100
AcDbEntity
  8
TABLE
100
AcDbLine
 10
450.0
 20
960.0
 30
0.0
 11
450.0
 21
1056.0
 31
0.0
  0
LINE
  5
1AD
330
17
100
AcDbEntity
  8
TABLE
100
AcDbLine
 10
480.0
 20
0.0
 30
0.0
 11
480.0
 21
96.0
 31
0.0
  0
LINE
  5
1AE
330
17
100
AcDbEntity
  8
TABLE
100
AcDbLine
 10
480.0
 20
96.0
 30
0.0
 11
480.0
 21
192.0
 31
0.0
  0
LINE
  5
1AF
330
17
100
AcDbEntity
  8
TABLE
100
AcDbLine
 10
480.0
 20
192.0
 30
0.0
 11
480.0
 21
288.0
 31
0.0
  0
LINE
  5
1B0
330
17
100
AcDbEntity
  8
TABLE
100
AcDbLine
 10
480.0
 20
288.0
 30
0.0
 11
480.0
 21
384.0
 31
0.0
  0
LINE
  5
1B1
330
17
100
AcDbEntity
  8
TABLE
100
AcDbLine
 10
480.0
 20
384.0
 30
0.0
 11
480.0
 21
480.0
 31
0.0
  0
LINE
  5
1B2
330
17
100
AcDbEntity
  8
TABLE
100
AcDbLine
 10
480.0
 20
480.0
 30
0.0
 11
480.0
 21
576.0
 31
0.0
  0
LINE
  5
1B3
330
17
100
AcDbEntity
  8
TABLE
100
AcDbLine
 10
480.0
 20
576.0
 30
0.0
 11
480.0
 21
672.0
 31
0.0
  0
LINE
  5
1B4
330
17
100
AcDbEntity
  8
TABLE
100
AcDbLine
 10
480.0
 20
672.0
 30
0.0
 11
480.0
 21
768.0
 31
0.0
  0
LINE
  5
1B5
330
17
100
AcDbEntity
  8
TABLE
100
AcDbLine
 10
480.0
 20
768.0
 30
0.0
 11
480.0
 21
864.0
 31
0.0
  0
LINE
  5
1B6
330
17
100
AcDbEntity
  8
TABLE
100
AcDbLine
 10
480.0
 20
864.0
 30
0.0
 11
480.0
 21
960.0
 31
0.0
  0
LINE
  5
1B7
330
17
100
AcDbEntity
  8
TABLE
100
AcDbLine
 10
480.0
 20
960.0
 30
0.0
 11
480.0
 21
1056.0
 31
0.0
  0
LINE
  5
1B8
330
17
100
AcDbEntity
  8
TABLE
100
AcDbLine
 10
510.0
 20
0.0
 30
0.0
 11
510.0
 21
96.0
 31
0.0
  0
LINE
  5
1B9
330
17
100
AcDbEntity
  8
TABLE
100
AcDbLine
 10
510.0
 20
96.0
 30
0.0
 11
510.0
 21
192.0
 31
0.0
  0
LINE
  5
1BA
330
17
100
AcDbEntity
  8
TABLE
100
AcDbLine
 10
510.0
 20
192.0
 30
0.0
 11
510.0
 21
288.0
 31
0.0
  0
LINE
  5
1BB
330
17
100
AcDbEntity
  8
TABLE
100
AcDbLine
 10
510.0
 20
288.0
 30
0.0
 11
510.0
 21
384.0
 31
0.0
  0
LINE
  5
1BC
330
17
100
AcDbEntity
  8
TABLE
100
AcDbLine
 10
510.0
 20
384.0
 30
0.0
 11
510.0
 21
480.0
 31
0.0
  0
LINE
  5
1BD
330
17
100
AcDbEntity
  8
TABLE
100
AcDbLine
 10
510.0
 20
480.0
 30
0.0
 11
510.0
 21
576.0
 31
0.0
  0
LINE
  5
1BE
330
17
100
AcDbEntity
  8
TABLE
100
AcDbLine
 10
510.0
 20
576.0
 30
0.0
 11
510.0
 21
672.0
 31
0.0
  0
LINE
  5
1BF
330
17
100
AcDbEntity
  8
TABLE
100
AcDbLine
 10
510.0
 20
672.0
 30
0.0
 11
510.0
 21
768.0
 31
0.0
  0
LINE
  5
1C0
330
17
100
AcDbEntity
  8
TABLE
100
AcDbLine
 10
510.0
 20
768.0
 30
0.0
 11
510.0
 21
864.0
 31
0.0
  0
LINE
  5
1C1
330
17
100
AcDbEntity
  8
TABLE
100
AcDbLine
 10
510.0
 20
864.0
 30
0.0
 11
510.0
 21
960.0
 31
0.0
  0
LINE
  5
1C2
330
17
100
AcDbEntity
  8
TABLE
100
AcDbLine
 10
510.0
 20
960.0
 30
0.0
 11
510.0
 21
1056.0
 31
0.0
  0
TEXT
  5
1C3
330
17
100
AcDbEntity
  8
0
100
AcDbText
 10
25.0
 20
961.0
 30
0.0
 40
20.0
  1
112421
 50
90.0
  7
font-Arial
 11
25.0
 21
961.0
 31
0.0
100
AcDbText
  0
TEXT
  5
1C4
330
17
100
AcDbEntity
  8
0
100
AcDbText
 10
55.0
 20
961.0
 30
0.0
 40
20.0
  1
112432
 50
90.0
  7
font-Arial
 11
55.0
 21
961.0
 31
0.0
100
AcDbText
  0
TEXT
  5
1C5
330
17
100
AcDbEntity
  8
0
100
AcDbText
 10
85.0
 20
961.0
 30
0.0
 40
20.0
  1
112443
 50
90.0
  7
font-Arial
 11
85.0
 21
961.0
 31
0.0
100
AcDbText
  0
TEXT
  5
1C6
330
17
100
AcDbEntity
  8
0
100
AcDbText
 10
115.0
 20
961.0
 30
0.0
 40
20.0
  1
112454
 50
90.0
  7
font-Arial
 11
115.0
 21
961.0
 31
0.0
100
AcDbText
  0
TEXT
  5
1C7
330
17
100
AcDbEntity
  8
0
100
AcDbText
 10
145.0
 20
961.0
 30
0.0
 40
20.0
  1
112465
 50
90.0
  7
font-Arial
 11
145.0
 21
961.0
 31
0.0
100
AcDbText
  0
TEXT
  5
1C8
330
17
100
AcDbEntity
  8
0
100
AcDbText
 10
175.0
 20
961.0
 30
0.0
 40
20.0
  1
112476
 50
90.0
  7
font-Arial
 11
175.0
 21
961.0
 31
0.0
100
AcDbText
  0
TEXT
  5
1C9
330
17
100
AcDbEntity
  8
0
100
AcDbText
 10
205.0
 20
961.0
 30
0.0
 40
20.0
  1
112487
 50
90.0
  7
font-Arial
 11
205.0
 21
961.0
 31
0.0
100
AcDbText
  0
TEXT
  5
1CA
330
17
100
AcDbEntity
  8
0
100
AcDbText
 10
235.0
 20
961.0
 30
0.0
 40
20.0
  1
112498
 50
90.0
  7
font-Arial
 11
235.0
 21
961.0
 31
0.0
100
AcDbText
  0
TEXT
  5
1CB
330
17
100
AcDbEntity
  8
0
100
AcDbText
 10
265.0
 20
961.0
 30
0.0
 40
20.0
  1
112509
 50
90.0
  7
font-Arial
 11
265.0
 21
961.0
 31
0.0
100
AcDbText
  0
TEXT
  5
1CC
330
17
100
AcDbEntity
  8
0
100
AcDbText
 10
295.0
 20
961.0
 30
0.0
 40
20.0
  1
112520
 50
90.0
  7
font-Arial
 11
295.0
 21
961.0
 31
0.0
100
AcDbText
  0
TEXT
  5
1CD
330
17
100
AcDbEntity
  8
0
100
AcDbText
 10
325.0
 20
961.0
 30
0.0
 40
20.0
  1
112531
 50
90.0
  7
font-Arial
 11
325.0
 21
961.0
 31
0.0
100
AcDbText
  0
TEXT
  5
1CE
330
17
100
AcDbEntity
  8
0
100
AcDbText
 10
355.0
 20
961.0
 30
0.0
 40
20.0
  1
112542
 50
90.0
  7
font-Arial
 11
355.0
 21
961.0
 31
0.0
100
AcDbText
  0
TEXT
  5
1CF
330
17
100
AcDbEntity
  8
0
100
AcDbText
 10
385.0
 20
961.0
 30
0.0
 40
20.0
  1
112553
 50
90.0
  7
font-Arial
 11
385.0
 21
961.0
 31
0.0
100
AcDbText
  0
TEXT
  5
1D0
330
17
100
AcDbEntity
  8
0
100
AcDbText
 10
415.0
 20
961.0
 30
0.0
 40
20.0
  1
112564
 50
90.0
  7
font-Arial
 11
415.0
 21
961.0
 31
0.0
100
AcDbText
  0
TEXT
  5
1D1
330
17
100
AcDbEntity
  8
0
100
AcDbText
 10
445.0
 20
961.0
 30
0.0
 40
20.0
  1
112575
 50
90.0
  7
font-Arial
 11
445.0
 21
961.0
 31
0.0
100
AcDbText
  0
TEXT
  5
1D2
330
17
100
AcDbEntity
  8
0
100
AcDbText
 10
475.0
 20
961.0
 30
0.0
 40
20.0
  1
112586
 50
90.0
  7
font-Arial
 11
475.0
 21
961.0
 31
0.0
100
AcDbText
  0
TEXT
  5
1D3
330
17
100
AcDbEntity
  8
0
100
AcDbText
 10
505.0
 20
961.0
 30
0.0
 40
20.0
  1
112597
 50
90.0
  7
font-Arial
 11
505.0
 21
961.0
 31
0.0
100
AcDbText
  0
TEXT
  5
1D4
330
17
100
AcDbEntity
  8
0
100
AcDbText
 10
25.0
 20
865.0
 30
0.0
 40
20.0
  1
112422
 50
90.0
  7
font-Arial
 11
25.0
 21
865.0
 31
0.0
100
AcDbText
  0
TEXT
  5
1D5
330
17
100
AcDbEntity
  8
0
100
AcDbText
 10
55.0
 20
865.0
 30
0.0
 40
20.0
  1
112433
 50
90.0
  7
font-Arial
 11
55.0
 21
865.0
 31
0.0
100
AcDbText
  0
TEXT
  5
1D6
330
17
100
AcDbEntity
  8
0
100
AcDbText
 10
85.0
 20
865.0
 30
0.0
 40
20.0
  1
112444
 50
90.0
  7
font-Arial
 11
85.0
 21
865.0
 31
0.0
100
AcDbText
  0
TEXT
  5
1D7
330
17
100
AcDbEntity
  8
0
100
AcDbText
 10
115.0
 20
865.0
 30
0.0
 40
20.0
  1
112455
 50
90.0
  7
font-Arial
 11
115.0
 21
865.0
 31
0.0
100
AcDbText
  0
TEXT
  5
1D8
330
17
100
AcDbEntity
  8
0
100
AcDbText
 10
145.0
 20
865.0
 30
0.0
 40
20.0
  1
112466
 50
90.0
  7
font-Arial
 11
145.0
 21
865.0
 31
0.0
100
AcDbText
  0
TEXT
  5
1D9
330
17
100
AcDbEntity
  8
0
100
AcDbText
 10
175.0
 20
865.0
 30
0.0
 40
20.0
  1
112477
 50
90.0
  7
font-Arial
 11
175.0
 21
865.0
 31
0.0
100
AcDbText
  0
TEXT
  5
1DA
330
17
100
AcDbEntity
  8
0
100
AcDbText
 10
205.0
 20
865.0
 30
0.0
 40
20.0
  1
112488
 50
90.0
  7
font-Arial
 11
205.0
 21
865.0
 31
0.0
100
AcDbText
  0
TEXT
  5
1DB
330
17
100
AcDbEntity
  8
0
100
AcDbText
 10
235.0
 20
865.0
 30
0.0
 40
20.0
  1
112499
 50
90.0
  7
font-Arial
 11
235.0
 21
865.0
 31
0.0
100
AcDbText
  0
TEXT
  5
1DC
330
17
100
AcDbEntity
  8
0
100
AcDbText
 10
265.0
 20
865.0
 30
0.0
 40
20.0
  1
112510
 50
90.0
  7
font-Arial
 11
265.0
 21
865.0
 31
0.0
100
AcDbText
  0
TEXT
  5
1DD
330
17
100
AcDbEntity
  8
0
100
AcDbText
 10
295.0
 20
865.0
 30
0.0
 40
20.0
  1
112521
 50
90.0
  7
font-Arial
 11
295.0
 21
865.0
 31
0.0
100
AcDbText
  0
TEXT
  5
1DE
330
17
100
AcDbEntity
  8
0
100
AcDbText
 10
325.0
 20
865.0
 30
0.0
 40
20.0
  1
112532
 50
90.0
  7
font-Arial
 11
325.0
 21
865.0
 31
0.0
100
AcDbText
  0
TEXT
  5
1DF
330
17
100
AcDbEntity
  8
0
100
AcDbText
 10
355.0
 20
865.0
 30
0.0
 40
20.0
  1
112543
 50
90.0
  7
font-Arial
 11
355.0
 21
865.0
 31
0.0
100
AcDbText
  0
TEXT
  5
1E0
330
17
100
AcDbEntity
  8
0
100
AcDbText
 10
385.0
 20
865.0
 30
0.0
 40
20.0
  1
112554
 50
90.0
  7
font-Arial
 11
385.0
 21
865.0
 31
0.0
100
AcDbText
  0
TEXT
  5
1E1
330
17
100
AcDbEntity
  8
0
100
AcDbText
 10
415.0
 20
865.0
 30
0.0
 40
20.0
  1
112565
 50
90.0
  7
font-Arial
 11
415.0
 21
865.0
 31
0.0
100
AcDbText
  0
TEXT
  5
1E2
330
17
100
AcDbEntity
  8
0
100
AcDbText
 10
445.0
 20
865.0
 30
0.0
 40
20.0
  1
112576
 50
90.0
  7
font-Arial
 11
445.0
 21
865.0
 31
0.0
100
AcDbText
  0
TEXT
  5
1E3
330
17
100
AcDbEntity
  8
0
100
AcDbText
 10
475.0
 20
865.0
 30
0.0
 40
20.0
  1
112587
 50
90.0
  7
font-Arial
 11
475.0
 21
865.0
 31
0.0
100
AcDbText
  0
TEXT
  5
1E4
330
17
100
AcDbEntity
  8
0
100
AcDbText
 10
505.0
 20
865.0
 30
0.0
 40
20.0
  1
112598
 50
90.0
  7
font-Arial
 11
505.0
 21
865.0
 31
0.0
100
AcDbText
  0
TEXT
  5
1E5
330
17
100
AcDbEntity
  8
0
100
AcDbText
 10
25.0
 20
769.0
 30
0.0
 40
20.0
  1
112423
 50
90.0
  7
font-Arial
 11
25.0
 21
769.0
 31
0.0
100
AcDbText
  0
TEXT
  5
1E6
330
17
100
AcDbEntity
  8
0
100
AcDbText
 10
55.0
 20
769.0
 30
0.0
 40
20.0
  1
112434
 50
90.0
  7
font-Arial
 11
55.0
 21
769.0
 31
0.0
100
AcDbText
  0
TEXT
  5
1E7
330
17
100
AcDbEntity
  8
0
100
AcDbText
 10
85.0
 20
769.0
 30
0.0
 40
20.0
  1
112445
 50
90.0
  7
font-Arial
 11
85.0
 21
769.0
 31
0.0
100
AcDbText
  0
TEXT
  5
1E8
330
17
100
AcDbEntity
  8
0
100
AcDbText
 10
115.0
 20
769.0
 30
0.0
 40
20.0
  1
112456
 50
90.0
  7
font-Arial
 11
115.0
 21
769.0
 31
0.0
100
AcDbText
  0
TEXT
  5
1E9
330
17
100
AcDbEntity
  8
0
100
AcDbText
 10
145.0
 20
769.0
 30
0.0
 40
20.0
  1
112467
 50
90.0
  7
font-Arial
 11
145.0
 21
769.0
 31
0.0
100
AcDbText
  0
TEXT
  5
1EA
330
17
100
AcDbEntity
  8
0
100
AcDbText
 10
175.0
 20
769.0
 30
0.0
 40
20.0
  1
112478
 50
90.0
  7
font-Arial
 11
175.0
 21
769.0
 31
0.0
100
AcDbText
  0
TEXT
  5
1EB
330
17
100
AcDbEntity
  8
0
100
AcDbText
 10
205.0
 20
769.0
 30
0.0
 40
20.0
  1
112489
 50
90.0
  7
font-Arial
 11
205.0
 21
769.0
 31
0.0
100
AcDbText
  0
TEXT
  5
1EC
330
17
100
AcDbEntity
  8
0
100
AcDbText
 10
235.0
 20
769.0
 30
0.0
 40
20.0
  1
112500
 50
90.0
  7
font-Arial
 11
235.0
 21
769.0
 31
0.0
100
AcDbText
  0
TEXT
  5
1ED
330
17
100
AcDbEntity
  8
0
100
AcDbText
 10
265.0
 20
769.0
 30
0.0
 40
20.0
  1
112511
 50
90.0
  7
font-Arial
 11
265.0
 21
769.0
 31
0.0
100
AcDbText
  0
TEXT
  5
1EE
330
17
100
AcDbEntity
  8
0
100
AcDbText
 10
295.0
 20
769.0
 30
0.0
 40
20.0
  1
112522
 50
90.0
  7
font-Arial
 11
295.0
 21
769.0
 31
0.0
100
AcDbText
  0
TEXT
  5
1EF
330
17
100
AcDbEntity
  8
0
100
AcDbText
 10
325.0
 20
769.0
 30
0.0
 40
20.0
  1
112533
 50
90.0
  7
font-Arial
 11
325.0
 21
769.0
 31
0.0
100
AcDbText
  0
TEXT
  5
1F0
330
17
100
AcDbEntity
  8
0
100
AcDbText
 10
355.0
 20
769.0
 30
0.0
 40
20.0
  1
112544
 50
90.0
  7
font-Arial
 11
355.0
 21
769.0
 31
0.0
100
AcDbText
  0
TEXT
  5
1F1
330
17
100
AcDbEntity
  8
0
100
AcDbText
 10
385.0
 20
769.0
 30
0.0
 40
20.0
  1
112555
 50
90.0
  7
font-Arial
 11
385.0
 21
769.0
 31
0.0
100
AcDbText
  0
TEXT
  5
1F2
330
17
100
AcDbEntity
  8
0
100
AcDbText
 10
415.0
 20
769.0
 30
0.0
 40
20.0
  1
112566
 50
90.0
  7
font-Arial
 11
415.0
 21
769.0
 31
0.0
100
AcDbText
  0
TEXT
  5
1F3
330
17
100
AcDbEntity
  8
0
100
AcDbText
 10
445.0
 20
769.0
 30
0.0
 40
20.0
  1
112577
 50
90.0
  7
font-Arial
 11
445.0
 21
769.0
 31
0.0
100
AcDbText
  0
TEXT
  5
1F4
330
17
100
AcDbEntity
  8
0
100
AcDbText
 10
475.0
 20
769.0
 30
0.0
 40
20.0
  1
112588
 50
90.0
  7
font-Arial
 11
475.0
 21
769.0
 31
0.0
100
AcDbText
  0
TEXT
  5
1F5
330
17
100
AcDbEntity
  8
0
100
AcDbText
 10
505.0
 20
769.0
 30
0.0
 40
20.0
  1
112599
 50
90.0
  7
font-Arial
 11
505.0
 21
769.0
 31
0.0
100
AcDbText
  0
TEXT
  5
1F6
330
17
100
AcDbEntity
  8
0
100
AcDbText
 10
25.0
 20
673.0
 30
0.0
 40
20.0
  1
112424
 50
90.0
  7
font-Arial
 11
25.0
 21
673.0
 31
0.0
100
AcDbText
  0
TEXT
  5
1F7
330
17
100
AcDbEntity
  8
0
100
AcDbText
 10
55.0
 20
673.0
 30
0.0
 40
20.0
  1
112435
 50
90.0
  7
font-Arial
 11
55.0
 21
673.0
 31
0.0
100
AcDbText
  0
TEXT
  5
1F8
330
17
100
AcDbEntity
  8
0
100
AcDbText
 10
85.0
 20
673.0
 30
0.0
 40
20.0
  1
112446
 50
90.0
  7
font-Arial
 11
85.0
 21
673.0
 31
0.0
100
AcDbText
  0
TEXT
  5
1F9
330
17
100
AcDbEntity
  8
0
100
AcDbText
 10
115.0
 20
673.0
 30
0.0
 40
20.0
  1
112457
 50
90.0
  7
font-Arial
 11
115.0
 21
673.0
 31
0.0
100
AcDbText
  0
TEXT
  5
1FA
330
17
100
AcDbEntity
  8
0
100
AcDbText
 10
145.0
 20
673.0
 30
0.0
 40
20.0
  1
112468
 50
90.0
  7
font-Arial
 11
145.0
 21
673.0
 31
0.0
100
AcDbText
  0
TEXT
  5
1FB
330
17
100
AcDbEntity
  8
0
100
AcDbText
 10
175.0
 20
673.0
 30
0.0
 40
20.0
  1
112479
 50
90.0
  7
font-Arial
 11
175.0
 21
673.0
 31
0.0
100
AcDbText
  0
TEXT
  5
1FC
330
17
100
AcDbEntity
  8
0
100
AcDbText
 10
205.0
 20
673.0
 30
0.0
 40
20.0
  1
112490
 50
90.0
  7
font-Arial
 11
205.0
 21
673.0
 31
0.0
100
AcDbText
  0
TEXT
  5
1FD
330
17
100
AcDbEntity
  8
0
100
AcDbText
 10
235.0
 20
673.0
 30
0.0
 40
20.0
  1
112501
 50
90.0
  7
font-Arial
 11
235.0
 21
673.0
 31
0.0
100
AcDbText
  0
TEXT
  5
1FE
330
17
100
AcDbEntity
  8
0
100
AcDbText
 10
265.0
 20
673.0
 30
0.0
 40
20.0
  1
112512
 50
90.0
  7
font-Arial
 11
265.0
 21
673.0
 31
0.0
100
AcDbText
  0
TEXT
  5
1FF
330
17
100
AcDbEntity
  8
0
100
AcDbText
 10
295.0
 20
673.0
 30
0.0
 40
20.0
  1
112523
 50
90.0
  7
font-Arial
 11
295.0
 21
673.0
 31
0.0
100
AcDbText
  0
TEXT
  5
200
330
17
100
AcDbEntity
  8
0
100
AcDbText
 10
325.0
 20
673.0
 30
0.0
 40
20.0
  1
112534
 50
90.0
  7
font-Arial
 11
325.0
 21
673.0
 31
0.0
100
AcDbText
  0
TEXT
  5
201
330
17
100
AcDbEntity
  8
0
100
AcDbText
 10
355.0
 20
673.0
 30
0.0
 40
20.0
  1
112545
 50
90.0
  7
font-Arial
 11
355.0
 21
673.0
 31
0.0
100
AcDbText
  0
TEXT
  5
202
330
17
100
AcDbEntity
  8
0
100
AcDbText
 10
385.0
 20
673.0
 30
0.0
 40
20.0
  1
112556
 50
90.0
  7
font-Arial
 11
385.0
 21
673.0
 31
0.0
100
AcDbText
  0
TEXT
  5
203
330
17
100
AcDbEntity
  8
0
100
AcDbText
 10
415.0
 20
673.0
 30
0.0
 40
20.0
  1
112567
 50
90.0
  7
font-Arial
 11
415.0
 21
673.0
 31
0.0
100
AcDbText
  0
TEXT
  5
204
330
17
100
AcDbEntity
  8
0
100
AcDbText
 10
445.0
 20
673.0
 30
0.0
 40
20.0
  1
112578
 50
90.0
  7
font-Arial
 11
445.0
 21
673.0
 31
0.0
100
AcDbText
  0
TEXT
  5
205
330
17
100
AcDbEntity
  8
0
100
AcDbText
 10
475.0
 20
673.0
 30
0.0
 40
20.0
  1
112589
 50
90.0
  7
font-Arial
 11
475.0
 21
673.0
 31
0.0
100
AcDbText
  0
TEXT
  5
206
330
17
100
AcDbEntity
  8
0
100
AcDbText
 10
505.0
 20
673.0
 30
0.0
 40
20.0
  1
112600
 50
90.0
  7
font-Arial
 11
505.0
 21
673.0
 31
0.0
100
AcDbText
  0
TEXT
  5
207
330
17
100
AcDbEntity
  8
0
100
AcDbText
 10
25.0
 20
577.0
 30
0.0
 40
20.0
  1
112425
 50
90.0
  7
font-Arial
 11
25.0
 21
577.0
 31
0.0
100
AcDbText
  0
TEXT
  5
208
330
17
100
AcDbEntity
  8
0
100
AcDbText
 10
55.0
 20
577.0
 30
0.0
 40
20.0
  1
112436
 50
90.0
  7
font-Arial
 11
55.0
 21
577.0
 31
0.0
100
AcDbText
  0
TEXT
  5
209
330
17
100
AcDbEntity
  8
0
100
AcDbText
 10
85.0
 20
577.0
 30
0.0
 40
20.0
  1
112447
 50
90.0
  7
font-Arial
 11
85.0
 21
577.0
 31
0.0
100
AcDbText
  0
TEXT
  5
20A
330
17
100
AcDbEntity
  8
0
100
AcDbText
 10
115.0
 20
577.0
 30
0.0
 40
20.0
  1
112458
 50
90.0
  7
font-Arial
 11
115.0
 21
577.0
 31
0.0
100
AcDbText
  0
TEXT
  5
20B
330
17
100
AcDbEntity
  8
0
100
AcDbText
 10
145.0
 20
577.0
 30
0.0
 40
20.0
  1
112469
 50
90.0
  7
font-Arial
 11
145.0
 21
577.0
 31
0.0
100
AcDbText
  0
TEXT
  5
20C
330
17
100
AcDbEntity
  8
0
100
AcDbText
 10
175.0
 20
577.0
 30
0.0
 40
20.0
  1
112480
 50
90.0
  7
font-Arial
 11
175.0
 21
577.0
 31
0.0
100
AcDbText
  0
TEXT
  5
20D
330
17
100
AcDbEntity
  8
0
100
AcDbText
 10
205.0
 20
577.0
 30
0.0
 40
20.0
  1
112491
 50
90.0
  7
font-Arial
 11
205.0
 21
577.0
 31
0.0
100
AcDbText
  0
TEXT
  5
20E
330
17
100
AcDbEntity
  8
0
100
AcDbText
 10
235.0
 20
577.0
 30
0.0
 40
20.0
  1
112502
 50
90.0
  7
font-Arial
 11
235.0
 21
577.0
 31
0.0
100
AcDbText
  0
TEXT
  5
20F
330
17
100
AcDbEntity
  8
0
100
AcDbText
 10
265.0
 20
577.0
 30
0.0
 40
20.0
  1
112513
 50
90.0
  7
font-Arial
 11
265.0
 21
577.0
 31
0.0
100
AcDbText
  0
TEXT
  5
210
330
17
100
AcDbEntity
  8
0
100
AcDbText
 10
295.0
 20
577.0
 30
0.0
 40
20.0
  1
112524
 50
90.0
  7
font-Arial
 11
295.0
 21
577.0
 31
0.0
100
AcDbText
  0
TEXT
  5
211
330
17
100
AcDbEntity
  8
0
100
AcDbText
 10
325.0
 20
577.0
 30
0.0
 40
20.0
  1
112535
 50
90.0
  7
font-Arial
 11
325.0
 21
577.0
 31
0.0
100
AcDbText
  0
TEXT
  5
212
330
17
100
AcDbEntity
  8
0
100
AcDbText
 10
355.0
 20
577.0
 30
0.0
 40
20.0
  1
112546
 50
90.0
  7
font-Arial
 11
355.0
 21
577.0
 31
0.0
100
AcDbText
  0
TEXT
  5
213
330
17
100
AcDbEntity
  8
0
100
AcDbText
 10
385.0
 20
577.0
 30
0.0
 40
20.0
  1
112557
 50
90.0
  7
font-Arial
 11
385.0
 21
577.0
 31
0.0
100
AcDbText
  0
TEXT
  5
214
330
17
100
AcDbEntity
  8
0
100
AcDbText
 10
415.0
 20
577.0
 30
0.0
 40
20.0
  1
112568
 50
90.0
  7
font-Arial
 11
415.0
 21
577.0
 31
0.0
100
AcDbText
  0
TEXT
  5
215
330
17
100
AcDbEntity
  8
0
100
AcDbText
 10
445.0
 20
577.0
 30
0.0
 40
20.0
  1
112579
 50
90.0
  7
font-Arial
 11
445.0
 21
577.0
 31
0.0
100
AcDbText
  0
TEXT
  5
216
330
17
100
AcDbEntity
  8
0
100
AcDbText
 10
475.0
 20
577.0
 30
0.0
 40
20.0
  1
112590
 50
90.0
  7
font-Arial
 11
475.0
 21
577.0
 31
0.0
100
AcDbText
  0
TEXT
  5
217
330
17
100
AcDbEntity
  8
0
100
AcDbText
 10
505.0
 20
577.0
 30
0.0
 40
20.0
  1
112601
 50
90.0
  7
font-Arial
 11
505.0
 21
577.0
 31
0.0
100
AcDbText
  0
TEXT
  5
218
330
17
100
AcDbEntity
  8
0
100
AcDbText
 10
25.0
 20
481.0
 30
0.0
 40
20.0
  1
112426
 50
90.0
  7
font-Arial
 11
25.0
 21
481.0
 31
0.0
100
AcDbText
  0
TEXT
  5
219
330
17
100
AcDbEntity
  8
0
100
AcDbText
 10
55.0
 20
481.0
 30
0.0
 40
20.0
  1
112437
 50
90.0
  7
font-Arial
 11
55.0
 21
481.0
 31
0.0
100
AcDbText
  0
TEXT
  5
21A
330
17
100
AcDbEntity
  8
0
100
AcDbText
 10
85.0
 20
481.0
 30
0.0
 40
20.0
  1
112448
 50
90.0
  7
font-Arial
 11
85.0
 21
481.0
 31
0.0
100
AcDbText
  0
TEXT
  5
21B
330
17
100
AcDbEntity
  8
0
100
AcDbText
 10
115.0
 20
481.0
 30
0.0
 40
20.0
  1
112459
 50
90.0
  7
font-Arial
 11
115.0
 21
481.0
 31
0.0
100
AcDbText
  0
TEXT
  5
21C
330
17
100
AcDbEntity
  8
0
100
AcDbText
 10
145.0
 20
481.0
 30
0.0
 40
20.0
  1
112470
 50
90.0
  7
font-Arial
 11
145.0
 21
481.0
 31
0.0
100
AcDbText
  0
TEXT
  5
21D
330
17
100
AcDbEntity
  8
0
100
AcDbText
 10
175.0
 20
481.0
 30
0.0
 40
20.0
  1
112481
 50
90.0
  7
font-Arial
 11
175.0
 21
481.0
 31
0.0
100
AcDbText
  0
TEXT
  5
21E
330
17
100
AcDbEntity
  8
0
100
AcDbText
 10
205.0
 20
481.0
 30
0.0
 40
20.0
  1
112492
 50
90.0
  7
font-Arial
 11
205.0
 21
481.0
 31
0.0
100
AcDbText
  0
TEXT
  5
21F
330
17
100
AcDbEntity
  8
0
100
AcDbText
 10
235.0
 20
481.0
 30
0.0
 40
20.0
  1
112503
 50
90.0
  7
font-Arial
 11
235.0
 21
481.0
 31
0.0
100
AcDbText
  0
TEXT
  5
220
330
17
100
AcDbEntity
  8
0
100
AcDbText
 10
265.0
 20
481.0
 30
0.0
 40
20.0
  1
112514
 50
90.0
  7
font-Arial
 11
265.0
 21
481.0
 31
0.0
100
AcDbText
  0
TEXT
  5
221
330
17
100
AcDbEntity
  8
0
100
AcDbText
 10
295.0
 20
481.0
 30
0.0
 40
20.0
  1
112525
 50
90.0
  7
font-Arial
 11
295.0
 21
481.0
 31
0.0
100
AcDbText
  0
TEXT
  5
222
330
17
100
AcDbEntity
  8
0
100
AcDbText
 10
325.0
 20
481.0
 30
0.0
 40
20.0
  1
112536
 50
90.0
  7
font-Arial
 11
325.0
 21
481.0
 31
0.0
100
AcDbText
  0
TEXT
  5
223
330
17
100
AcDbEntity
  8
0
100
AcDbText
 10
355.0
 20
481.0
 30
0.0
 40
20.0
  1
112547
 50
90.0
  7
font-Arial
 11
355.0
 21
481.0
 31
0.0
100
AcDbText
  0
TEXT
  5
224
330
17
100
AcDbEntity
  8
0
100
AcDbText
 10
385.0
 20
481.0
 30
0.0
 40
20.0
  1
112558
 50
90.0
  7
font-Arial
 11
385.0
 21
481.0
 31
0.0
100
AcDbText
  0
TEXT
  5
225
330
17
100
AcDbEntity
  8
0
100
AcDbText
 10
415.0
 20
481.0
 30
0.0
 40
20.0
  1
112569
 50
90.0
  7
font-Arial
 11
415.0
 21
481.0
 31
0.0
100
AcDbText
  0
TEXT
  5
226
330
17
100
AcDbEntity
  8
0
100
AcDbText
 10
445.0
 20
481.0
 30
0.0
 40
20.0
  1
112580
 50
90.0
  7
font-Arial
 11
445.0
 21
481.0
 31
0.0
100
AcDbText
  0
TEXT
  5
227
330
17
100
AcDbEntity
  8
0
100
AcDbText
 10
475.0
 20
481.0
 30
0.0
 40
20.0
  1
112591
 50
90.0
  7
font-Arial
 11
475.0
 21
481.0
 31
0.0
100
AcDbText
  0
TEXT
  5
228
330
17
100
AcDbEntity
  8
0
100
AcDbText
 10
505.0
 20
481.0
 30
0.0
 40
20.0
  1
112602
 50
90.0
  7
font-Arial
 11
505.0
 21
481.0
 31
0.0
100
AcDbText
  0
TEXT
  5
229
330
17
100
AcDbEntity
  8
0
100
AcDbText
 10
25.0
 20
385.0
 30
0.0
 40
20.0
  1
112427
 50
90.0
  7
font-Arial
 11
25.0
 21
385.0
 31
0.0
100
AcDbText
  0
TEXT
  5
22A
330
17
100
AcDbEntity
  8
0
100
AcDbText
 10
55.0
 20
385.0
 30
0.0
 40
20.0
  1
112438
 50
90.0
  7
font-Arial
 11
55.0
 21
385.0
 31
0.0
100
AcDbText
  0
TEXT
  5
22B
330
17
100
AcDbEntity
  8
0
100
AcDbText
 10
85.0
 20
385.0
 30
0.0
 40
20.0
  1
112449
 50
90.0
  7
font-Arial
 11
85.0
 21
385.0
 31
0.0
100
AcDbText
  0
TEXT
  5
22C
330
17
100
AcDbEntity
  8
0
100
AcDbText
 10
115.0
 20
385.0
 30
0.0
 40
20.0
  1
112460
 50
90.0
  7
font-Arial
 11
115.0
 21
385.0
 31
0.0
100
AcDbText
  0
TEXT
  5
22D
330
17
100
AcDbEntity
  8
0
100
AcDbText
 10
145.0
 20
385.0
 30
0.0
 40
20.0
  1
112471
 50
90.0
  7
font-Arial
 11
145.0
 21
385.0
 31
0.0
100
AcDbText
  0
TEXT
  5
22E
330
17
100
AcDbEntity
  8
0
100
AcDbText
 10
175.0
 20
385.0
 30
0.0
 40
20.0
  1
112482
 50
90.0
  7
font-Arial
 11
175.0
 21
385.0
 31
0.0
100
AcDbText
  0
TEXT
  5
22F
330
17
100
AcDbEntity
  8
0
100
AcDbText
 10
205.0
 20
385.0
 30
0.0
 40
20.0
  1
112493
 50
90.0
  7
font-Arial
 11
205.0
 21
385.0
 31
0.0
100
AcDbText
  0
TEXT
  5
230
330
17
100
AcDbEntity
  8
0
100
AcDbText
 10
235.0
 20
385.0
 30
0.0
 40
20.0
  1
112504
 50
90.0
  7
font-Arial
 11
235.0
 21
385.0
 31
0.0
100
AcDbText
  0
TEXT
  5
231
330
17
100
AcDbEntity
  8
0
100
AcDbText
 10
265.0
 20
385.0
 30
0.0
 40
20.0
  1
112515
 50
90.0
  7
font-Arial
 11
265.0
 21
385.0
 31
0.0
100
AcDbText
  0
TEXT
  5
232
330
17
100
AcDbEntity
  8
0
100
AcDbText
 10
295.0
 20
385.0
 30
0.0
 40
20.0
  1
112526
 50
90.0
  7
font-Arial
 11
295.0
 21
385.0
 31
0.0
100
AcDbText
  0
TEXT
  5
233
330
17
100
AcDbEntity
  8
0
100
AcDbText
 10
325.0
 20
385.0
 30
0.0
 40
20.0
  1
112537
 50
90.0
  7
font-Arial
 11
325.0
 21
385.0
 31
0.0
100
AcDbText
  0
TEXT
  5
234
330
17
100
AcDbEntity
  8
0
100
AcDbText
 10
355.0
 20
385.0
 30
0.0
 40
20.0
  1
112548
 50
90.0
  7
font-Arial
 11
355.0
 21
385.0
 31
0.0
100
AcDbText
  0
TEXT
  5
235
330
17
100
AcDbEntity
  8
0
100
AcDbText
 10
385.0
 20
385.0
 30
0.0
 40
20.0
  1
112559
 50
90.0
  7
font-Arial
 11
385.0
 21
385.0
 31
0.0
100
AcDbText
  0
TEXT
  5
236
330
17
100
AcDbEntity
  8
0
100
AcDbText
 10
415.0
 20
385.0
 30
0.0
 40
20.0
  1
112570
 50
90.0
  7
font-Arial
 11
415.0
 21
385.0
 31
0.0
100
AcDbText
  0
TEXT
  5
237
330
17
100
AcDbEntity
  8
0
100
AcDbText
 10
445.0
 20
385.0
 30
0.0
 40
20.0
  1
112581
 50
90.0
  7
font-Arial
 11
445.0
 21
385.0
 31
0.0
100
AcDbText
  0
TEXT
  5
238
330
17
100
AcDbEntity
  8
0
100
AcDbText
 10
475.0
 20
385.0
 30
0.0
 40
20.0
  1
112592
 50
90.0
  7
font-Arial
 11
475.0
 21
385.0
 31
0.0
100
AcDbText
  0
TEXT
  5
239
330
17
100
AcDbEntity
  8
0
100
AcDbText
 10
505.0
 20
385.0
 30
0.0
 40
20.0
  1
112603
 50
90.0
  7
font-Arial
 11
505.0
 21
385.0
 31
0.0
100
AcDbText
  0
TEXT
  5
23A
330
17
100
AcDbEntity
  8
0
100
AcDbText
 10
25.0
 20
289.0
 30
0.0
 40
20.0
  1
112428
 50
90.0
  7
font-Arial
 11
25.0
 21
289.0
 31
0.0
100
AcDbText
  0
TEXT
  5
23B
330
17
100
AcDbEntity
  8
0
100
AcDbText
 10
55.0
 20
289.0
 30
0.0
 40
20.0
  1
112439
 50
90.0
  7
font-Arial
 11
55.0
 21
289.0
 31
0.0
100
AcDbText
  0
TEXT
  5
23C
330
17
100
AcDbEntity
  8
0
100
AcDbText
 10
85.0
 20
289.0
 30
0.0
 40
20.0
  1
112450
 50
90.0
  7
font-Arial
 11
85.0
 21
289.0
 31
0.0
100
AcDbText
  0
TEXT
  5
23D
330
17
100
AcDbEntity
  8
0
100
AcDbText
 10
115.0
 20
289.0
 30
0.0
 40
20.0
  1
112461
 50
90.0
  7
font-Arial
 11
115.0
 21
289.0
 31
0.0
100
AcDbText
  0
TEXT
  5
23E
330
17
100
AcDbEntity
  8
0
100
AcDbText
 10
145.0
 20
289.0
 30
0.0
 40
20.0
  1
112472
 50
90.0
  7
font-Arial
 11
145.0
 21
289.0
 31
0.0
100
AcDbText
  0
TEXT
  5
23F
330
17
100
AcDbEntity
  8
0
100
AcDbText
 10
175.0
 20
289.0
 30
0.0
 40
20.0
  1
112483
 50
90.0
  7
font-Arial
 11
175.0
 21
289.0
 31
0.0
100
AcDbText
  0
TEXT
  5
240
330
17
100
AcDbEntity
  8
0
100
AcDbText
 10
205.0
 20
289.0
 30
0.0
 40
20.0
  1
112494
 50
90.0
  7
font-Arial
 11
205.0
 21
289.0
 31
0.0
100
AcDbText
  0
TEXT
  5
241
330
17
100
AcDbEntity
  8
0
100
AcDbText
 10
235.0
 20
289.0
 30
0.0
 40
20.0
  1
112505
 50
90.0
  7
font-Arial
 11
235.0
 21
289.0
 31
0.0
100
AcDbText
  0
TEXT
  5
242
330
17
100
AcDbEntity
  8
0
100
AcDbText
 10
265.0
 20
289.0
 30
0.0
 40
20.0
  1
112516
 50
90.0
  7
font-Arial
 11
265.0
 21
289.0
 31
0.0
100
AcDbText
  0
TEXT
  5
243
330
17
100
AcDbEntity
  8
0
100
AcDbText
 10
295.0
 20
289.0
 30
0.0
 40
20.0
  1
112527
 50
90.0
  7
font-Arial
 11
295.0
 21
289.0
 31
0.0
100
AcDbText
  0
TEXT
  5
244
330
17
100
AcDbEntity
  8
0
100
AcDbText
 10
325.0
 20
289.0
 30
0.0
 40
20.0
  1
112538
 50
90.0
  7
font-Arial
 11
325.0
 21
289.0
 31
0.0
100
AcDbText
  0
TEXT
  5
245
330
17
100
AcDbEntity
  8
0
100
AcDbText
 10
355.0
 20
289.0
 30
0.0
 40
20.0
  1
112549
 50
90.0
  7
font-Arial
 11
355.0
 21
289.0
 31
0.0
100
AcDbText
  0
TEXT
  5
246
330
17
100
AcDbEntity
  8
0
100
AcDbText
 10
385.0
 20
289.0
 30
0.0
 40
20.0
  1
112560
 50
90.0
  7
font-Arial
 11
385.0
 21
289.0
 31
0.0
100
AcDbText
  0
TEXT
  5
247
330
17
100
AcDbEntity
  8
0
100
AcDbText
 10
415.0
 20
289.0
 30
0.0
 40
20.0
  1
112571
 50
90.0
  7
font-Arial
 11
415.0
 21
289.0
 31
0.0
100
AcDbText
  0
TEXT
  5
248
330
17
100
AcDbEntity
  8
0
100
AcDbText
 10
445.0
 20
289.0
 30
0.0
 40
20.0
  1
112582
 50
90.0
  7
font-Arial
 11
445.0
 21
289.0
 31
0.0
100
AcDbText
  0
TEXT
  5
249
330
17
100
AcDbEntity
  8
0
100
AcDbText
 10
475.0
 20
289.0
 30
0.0
 40
20.0
  1
112593
 50
90.0
  7
font-Arial
 11
475.0
 21
289.0
 31
0.0
100
AcDbText
  0
TEXT
  5
24A
330
17
100
AcDbEntity
  8
0
100
AcDbText
 10
505.0
 20
289.0
 30
0.0
 40
20.0
  1
112604
 50
90.0
  7
font-Arial
 11
505.0
 21
289.0
 31
0.0
100
AcDbText
  0
TEXT
  5
24B
330
17
100
AcDbEntity
  8
0
100
AcDbText
 10
25.0
 20
193.0
 30
0.0
 40
20.0
  1
112429
 50
90.0
  7
font-Arial
 11
25.0
 21
193.0
 31
0.0
100
AcDbText
  0
TEXT
  5
24C
330
17
100
AcDbEntity
  8
0
100
AcDbText
 10
55.0
 20
193.0
 30
0.0
 40
20.0
  1
112440
 50
90.0
  7
font-Arial
 11
55.0
 21
193.0
 31
0.0
100
AcDbText
  0
TEXT
  5
24D
330
17
100
AcDbEntity
  8
0
100
AcDbText
 10
85.0
 20
193.0
 30
0.0
 40
20.0
  1
112451
 50
90.0
  7
font-Arial
 11
85.0
 21
193.0
 31
0.0
100
AcDbText
  0
TEXT
  5
24E
330
17
100
AcDbEntity
  8
0
100
AcDbText
 10
115.0
 20
193.0
 30
0.0
 40
20.0
  1
112462
 50
90.0
  7
font-Arial
 11
115.0
 21
193.0
 31
0.0
100
AcDbText
  0
TEXT
  5
24F
330
17
100
AcDbEntity
  8
0
100
AcDbText
 10
145.0
 20
193.0
 30
0.0
 40
20.0
  1
112473
 50
90.0
  7
font-Arial
 11
145.0
 21
193.0
 31
0.0
100
AcDbText
  0
TEXT
  5
250
330
17
100
AcDbEntity
  8
0
100
AcDbText
 10
175.0
 20
193.0
 30
0.0
 40
20.0
  1
112484
 50
90.0
  7
font-Arial
 11
175.0
 21
193.0
 31
0.0
100
AcDbText
  0
TEXT
  5
251
330
17
100
AcDbEntity
  8
0
100
AcDbText
 10
205.0
 20
193.0
 30
0.0
 40
20.0
  1
112495
 50
90.0
  7
font-Arial
 11
205.0
 21
193.0
 31
0.0
100
AcDbText
  0
TEXT
  5
252
330
17
100
AcDbEntity
  8
0
100
AcDbText
 10
235.0
 20
193.0
 30
0.0
 40
20.0
  1
112506
 50
90.0
  7
font-Arial
 11
235.0
 21
193.0
 31
0.0
100
AcDbText
  0
TEXT
  5
253
330
17
100
AcDbEntity
  8
0
100
AcDbText
 10
265.0
 20
193.0
 30
0.0
 40
20.0
  1
112517
 50
90.0
  7
font-Arial
 11
265.0
 21
193.0
 31
0.0
100
AcDbText
  0
TEXT
  5
254
330
17
100
AcDbEntity
  8
0
100
AcDbText
 10
295.0
 20
193.0
 30
0.0
 40
20.0
  1
112528
 50
90.0
  7
font-Arial
 11
295.0
 21
193.0
 31
0.0
100
AcDbText
  0
TEXT
  5
255
330
17
100
AcDbEntity
  8
0
100
AcDbText
 10
325.0
 20
193.0
 30
0.0
 40
20.0
  1
112539
 50
90.0
  7
font-Arial
 11
325.0
 21
193.0
 31
0.0
100
AcDbText
  0
TEXT
  5
256
330
17
100
AcDbEntity
  8
0
100
AcDbText
 10
355.0
 20
193.0
 30
0.0
 40
20.0
  1
112550
 50
90.0
  7
font-Arial
 11
355.0
 21
193.0
 31
0.0
100
AcDbText
  0
TEXT
  5
257
330
17
100
AcDbEntity
  8
0
100
AcDbText
 10
385.0
 20
193.0
 30
0.0
 40
20.0
  1
112561
 50
90.0
  7
font-Arial
 11
385.0
 21
193.0
 31
0.0
100
AcDbText
  0
TEXT
  5
258
330
17
100
AcDbEntity
  8
0
100
AcDbText
 10
415.0
 20
193.0
 30
0.0
 40
20.0
  1
112572
 50
90.0
  7
font-Arial
 11
415.0
 21
193.0
 31
0.0
100
AcDbText
  0
TEXT
  5
259
330
17
100
AcDbEntity
  8
0
100
AcDbText
 10
445.0
 20
193.0
 30
0.0
 40
20.0
  1
112583
 50
90.0
  7
font-Arial
 11
445.0
 21
193.0
 31
0.0
100
AcDbText
  0
TEXT
  5
25A
330
17
100
AcDbEntity
  8
0
100
AcDbText
 10
475.0
 20
193.0
 30
0.0
 40
20.0
  1
112594
 50
90.0
  7
font-Arial
 11
475.0
 21
193.0
 31
0.0
100
AcDbText
  0
TEXT
  5
25B
330
17
100
AcDbEntity
  8
0
100
AcDbText
 10
505.0
 20
193.0
 30
0.0
 40
20.0
  1
112605
 50
90.0
  7
font-Arial
 11
505.0
 21
193.0
 31
0.0
100
AcDbText
  0
TEXT
  5
25C
330
17
100
AcDbEntity
  8
0
100
AcDbText
 10
25.0
 20
97.0
 30
0.0
 40
20.0
  1
112430
 50
90.0
  7
font-Arial
 11
25.0
 21
97.0
 31
0.0
100
AcDbText
  0
TEXT
  5
25D
330
17
100
AcDbEntity
  8
0
100
AcDbText
 10
55.0
 20
97.0
 30
0.0
 40
20.0
  1
112441
 50
90.0
  7
font-Arial
 11
55.0
 21
97.0
 31
0.0
100
AcDbText
  0
TEXT
  5
25E
330
17
100
AcDbEntity
  8
0
100
AcDbText
 10
85.0
 20
97.0
 30
0.0
 40
20.0
  1
112452
 50
90.0
  7
font-Arial
 11
85.0
 21
97.0
 31
0.0
100
AcDbText
  0
TEXT
  5
25F
330
17
100
AcDbEntity
  8
0
100
AcDbText
 10
115.0
 20
97.0
 30
0.0
 40
20.0
  1
112463
 50
90.0
  7
font-Arial
 11
115.0
 21
97.0
 31
0.0
100
AcDbText
  0
TEXT
  5
260
330
17
100
AcDbEntity
  8
0
100
AcDbText
 10
145.0
 20
97.0
 30
0.0
 40
20.0
  1
112474
 50
90.0
  7
font-Arial
 11
145.0
 21
97.0
 31
0.0
100
AcDbText
  0
TEXT
  5
261
330
17
100
AcDbEntity
  8
0
100
AcDbText
 10
175.0
 20
97.0
 30
0.0
 40
20.0
  1
112485
 50
90.0
  7
font-Arial
 11
175.0
 21
97.0
 31
0.0
100
AcDbText
  0
TEXT
  5
262
330
17
100
AcDbEntity
  8
0
100
AcDbText
 10
205.0
 20
97.0
 30
0.0
 40
20.0
  1
112496
 50
90.0
  7
font-Arial
 11
205.0
 21
97.0
 31
0.0
100
AcDbText
  0
TEXT
  5
263
330
17
100
AcDbEntity
  8
0
100
AcDbText
 10
235.0
 20
97.0
 30
0.0
 40
20.0
  1
112507
 50
90.0
  7
font-Arial
 11
235.0
 21
97.0
 31
0.0
100
AcDbText
  0
TEXT
  5
264
330
17
100
AcDbEntity
  8
0
100
AcDbText
 10
265.0
 20
97.0
 30
0.0
 40
20.0
  1
112518
 50
90.0
  7
font-Arial
 11
265.0
 21
97.0
 31
0.0
100
AcDbText
  0
TEXT
  5
265
330
17
100
AcDbEntity
  8
0
100
AcDbText
 10
295.0
 20
97.0
 30
0.0
 40
20.0
  1
112529
 50
90.0
  7
font-Arial
 11
295.0
 21
97.0
 31
0.0
100
AcDbText
  0
TEXT
  5
266
330
17
100
AcDbEntity
  8
0
100
AcDbText
 10
325.0
 20
97.0
 30
0.0
 40
20.0
  1
112540
 50
90.0
  7
font-Arial
 11
325.0
 21
97.0
 31
0.0
100
AcDbText
  0
TEXT
  5
267
330
17
100
AcDbEntity
  8
0
100
AcDbText
 10
355.0
 20
97.0
 30
0.0
 40
20.0
  1
112551
 50
90.0
  7
font-Arial
 11
355.0
 21
97.0
 31
0.0
100
AcDbText
  0
TEXT
  5
268
330
17
100
AcDbEntity
  8
0
100
AcDbText
 10
385.0
 20
97.0
 30
0.0
 40
20.0
  1
112562
 50
90.0
  7
font-Arial
 11
385.0
 21
97.0
 31
0.0
100
AcDbText
  0
TEXT
  5
269
330
17
100
AcDbEntity
  8
0
100
AcDbText
 10
415.0
 20
97.0
 30
0.0
 40
20.0
  1
112573
 50
90.0
  7
font-Arial
 11
415.0
 21
97.0
 31
0.0
100
AcDbText
  0
TEXT
  5
26A
330
17
100
AcDbEntity
  8
0
100
AcDbText
 10
445.0
 20
97.0
 30
0.0
 40
20.0
  1
112584
 50
90.0
  7
font-Arial
 11
445.0
 21
97.0
 31
0.0
100
AcDbText
  0
TEXT
  5
26B
330
17
100
AcDbEntity
  8
0
100
AcDbText
 10
475.0
 20
97.0
 30
0.0
 40
20.0
  1
112595
 50
90.0
  7
font-Arial
 11
475.0
 21
97.0
 31
0.0
100
AcDbText
  0
TEXT
  5
26C
330
17
100
AcDbEntity
  8
0
100
AcDbText
 10
505.0
 20
97.0
 30
0.0
 40
20.0
  1
112606
 50
90.0
  7
font-Arial
 11
505.0
 21
97.0
 31
0.0
100
AcDbText
  0
TEXT
  5
26D
330
17
100
AcDbEntity
  8
0
100
AcDbText
 10
25.0
 20
1.0
 30
0.0
 40
20.0
  1
112431
 50
90.0
  7
font-Arial
 11
25.0
 21
1.0
 31
0.0
100
AcDbText
  0
TEXT
  5
26E
330
17
100
AcDbEntity
  8
0
100
AcDbText
 10
55.0
 20
1.0
 30
0.0
 40
20.0
  1
112442
 50
90.0
  7
font-Arial
 11
55.0
 21
1.0
 31
0.0
100
AcDbText
  0
TEXT
  5
26F
330
17
100
AcDbEntity
  8
0
100
AcDbText
 10
85.0
 20
1.0
 30
0.0
 40
20.0
  1
112453
 50
90.0
  7
font-Arial
 11
85.0
 21
1.0
 31
0.0
100
AcDbText
  0
TEXT
  5
270
330
17
100
AcDbEntity
  8
0
100
AcDbText
 10
115.0
 20
1.0
 30
0.0
 40
20.0
  1
112464
 50
90.0
  7
font-Arial
 11
115.0
 21
1.0
 31
0.0
100
AcDbText
  0
TEXT
  5
271
330
17
100
AcDbEntity
  8
0
100
AcDbText
 10
145.0
 20
1.0
 30
0.0
 40
20.0
  1
112475
 50
90.0
  7
font-Arial
 11
145.0
 21
1.0
 31
0.0
100
AcDbText
  0
TEXT
  5
272
330
17
100
AcDbEntity
  8
0
100
AcDbText
 10
175.0
 20
1.0
 30
0.0
 40
20.0
  1
112486
 50
90.0
  7
font-Arial
 11
175.0
 21
1.0
 31
0.0
100
AcDbText
  0
TEXT
  5
273
330
17
100
AcDbEntity
  8
0
100
AcDbText
 10
205.0
 20
1.0
 30
0.0
 40
20.0
  1
112497
 50
90.0
  7
font-Arial
 11
205.0
 21
1.0
 31
0.0
100
AcDbText
  0
TEXT
  5
274
330
17
100
AcDbEntity
  8
0
100
AcDbText
 10
235.0
 20
1.0
 30
0.0
 40
20.0
  1
112508
 50
90.0
  7
font-Arial
 11
235.0
 21
1.0
 31
0.0
100
AcDbText
  0
TEXT
  5
275
330
17
100
AcDbEntity
  8
0
100
AcDbText
 10
265.0
 20
1.0
 30
0.0
 40
20.0
  1
112519
 50
90.0
  7
font-Arial
 11
265.0
 21
1.0
 31
0.0
100
AcDbText
  0
TEXT
  5
276
330
17
100
AcDbEntity
  8
0
100
AcDbText
 10
295.0
 20
1.0
 30
0.0
 40
20.0
  1
112530
 50
90.0
  7
font-Arial
 11
295.0
 21
1.0
 31
0.0
100
AcDbText
  0
TEXT
  5
277
330
17
100
AcDbEntity
  8
0
100
AcDbText
 10
325.0
 20
1.0
 30
0.0
 40
20.0
  1
112541
 50
90.0
  7
font-Arial
 11
325.0
 21
1.0
 31
0.0
100
AcDbText
  0
TEXT
  5
278
330
17
100
AcDbEntity
  8
0
100
AcDbText
 10
355.0
 20
1.0
 30
0.0
 40
20.0
  1
112552
 50
90.0
  7
font-Arial
 11
355.0
 21
1.0
 31
0.0
100
AcDbText
  0
TEXT
  5
279
330
17
100
AcDbEntity
  8
0
100
AcDbText
 10
385.0
 20
1.0
 30
0.0
 40
20.0
  1
112563
 50
90.0
  7
font-Arial
 11
385.0
 21
1.0
 31
0.0
100
AcDbText
  0
TEXT
  5
27A
330
17
100
AcDbEntity
  8
0
100
AcDbText
 10
415.0
 20
1.0
 30
0.0
 40
20.0
  1
112574
 50
90.0
  7
font-Arial
 11
415.0
 21
1.0
 31
0.0
100
AcDbText
  0
TEXT
  5
27B
330
17
100
AcDbEntity
  8
0
100
AcDbText
 10
445.0
 20
1.0
 30
0.0
 40
20.0
  1
112585
 50
90.0
  7
font-Arial
 11
445.0
 21
1.0
 31
0.0
100
AcDbText
  0
TEXT
  5
27C
330
17
100
AcDbEntity
  8
0
100
AcDbText
 10
475.0
 20
1.0
 30
0.0
 40
20.0
  1
112596
 50
90.0
  7
font-Arial
 11
475.0
 21
1.0
 31
0.0
100
AcDbText
  0
TEXT
  5
27D
330
17
100
AcDbEntity
  8
0
100
AcDbText
 10
505.0
 20
1.0
 30
0.0
 40
20.0
  1
112607
 50
90.0
  7
font-Arial
 11
505.0
 21
1.0
 31
0.0
100
AcDbText
  0
ENDSEC
  0
SECTION
  2
OBJECTS
  0
DICTIONARY
  5
A
330
0
100
AcDbDictionary
281
1
  3
ACAD_COLOR
350
B
  3
ACAD_GROUP
350
C
  3
ACAD_LAYOUT
350
D
  3
ACAD_MATERIAL
350
E
  3
ACAD_MLEADERSTYLE
350
F
  3
ACAD_MLINESTYLE
350
10
  3
ACAD_PLOTSETTINGS
350
11
  3
ACAD_PLOTSTYLENAME
350
12
  3
ACAD_SCALELIST
350
14
  3
ACAD_TABLESTYLE
350
15
  3
ACAD_VISUALSTYLE
350
16
  3
EZDXF_META
350
2D
  0
DICTIONARY
  5
B
330
A
100
AcDbDictionary
281
1
  0
DICTIONARY
  5
C
330
A
100
AcDbDictionary
281
1
  0
DICTIONARY
  5
D
330
A
100
AcDbDictionary
281
1
  3
Model
350
1A
  3
Layout1
350
1E
  0
DICTIONARY
  5
E
330
A
100
AcDbDictionary
281
1
  3
ByBlock
350
1F
  3
ByLayer
350
20
  3
Global
350
21
  0
DICTIONARY
  5
F
330
A
100
AcDbDictionary
281
1
  3
Standard
350
2C
  0
DICTIONARY
  5
10
330
A
100
AcDbDictionary
281
1
  3
Standard
350
22
  0
DICTIONARY
  5
11
330
A
100
AcDbDictionary
281
1
  0
ACDBDICTIONARYWDFLT
  5
12
330
A
100
AcDbDictionary
281
1
  3
Normal
350
13
100
AcDbDictionaryWithDefault
340
13
  0
ACDBPLACEHOLDER
  5
13
330
12
  0
DICTIONARY
  5
14
330
A
100
AcDbDictionary
281
1
  0
DICTIONARY
  5
15
330
A
100
AcDbDictionary
281
1
  0
DICTIONARY
  5
16
330
A
100
AcDbDictionary
281
1
  0
LAYOUT
  5
1A
330
D
100
AcDbPlotSettings
  1

  2
Adobe PDF
  4
A3
  6

 40
7.5
 41
20.0
 42
7.5
 43
20.0
 44
420.0
 45
297.0
 46
0.0
 47
0.0
 48
0.0
 49
0.0
140
0.0
141
0.0
142
1.0
143
1.0
 70
1024
 72
1
 73
1
 74
5
  7

 75
16
 76
0
 77
2
 78
300
147
1.0
148
0.0
149
0.0
100
AcDbLayout
  1
Model
 70
1
 71
0
 10
0.0
 20
0.0
 11
420.0
 21
297.0
 12
0.0
 22
0.0
 32
0.0
 14
1e+20
 24
1e+20
 34
1e+20
 15
-1e+20
 25
-1e+20
 35
-1e+20
146
0.0
 13
0.0
 23
0.0
 33
0.0
 16
1.0
 26
0.0
 36
0.0
 17
0.0
 27
1.0
 37
0.0
 76
1
330
17
  0
LAYOUT
  5
1E
330
D
100
AcDbPlotSettings
  1

  2
Adobe PDF
  4
A3
  6

 40
7.5
 41
20.0
 42
7.5
 43
20.0
 44
420.0
 45
297.0
 46
0.0
 47
0.0
 48
0.0
 49
0.0
140
0.0
141
0.0
142
1.0
143
1.0
 70
0
 72
1
 73
1
 74
5
  7

 75
16
 76
0
 77
2
 78
300
147
1.0
148
0.0
149
0.0
100
AcDbLayout
  1
Layout1
 70
1
 71
1
 10
0.0
 20
0.0
 11
420.0
 21
297.0
 12
0.0
 22
0.0
 32
0.0
 14
1e+20
 24
1e+20
 34
1e+20
 15
-1e+20
 25
-1e+20
 35
-1e+20
146
0.0
 13
0.0
 23
0.0
 33
0.0
 16
1.0
 26
0.0
 36
0.0
 17
0.0
 27
1.0
 37
0.0
 76
1
330
1B
  0
MATERIAL
  5
1F
102
{ACAD_REACTORS
330
E
102
}
330
E
100
AcDbMaterial
  1
ByBlock
  2

 70
0
 40
1.0
 71
1
 41
1.0
 91
-1023410177
 42
1.0
 72
1
  3

 73
1
 74
1
 75
1
 44
0.5
 73
0
 45
1.0
 46
1.0
 77
1
  4

 78
1
 79
1
170
1
 48
1.0
171
1
  6

172
1
173
1
174
1
140
1.0
141
1.0
175
1
  7

176
1
177
1
178
1
143
1.0
179
1
  8

270
1
271
1
272
1
145
1.0
146
1.0
273
1
  9

274
1
275
1
276
1
 42
1.0
 72
1
  3

 73
1
 74
1
 75
1
 94
63
  0
MATERIAL
  5
20
102
{ACAD_REACTORS
330
E
102
}
330
E
100
AcDbMaterial
  1
ByLayer
  2

 70
0
 40
1.0
 71
1
 41
1.0
 91
-1023410177
 42
1.0
 72
1
  3

 73
1
 74
1
 75
1
 44
0.5
 73
0
 45
1.0
 46
1.0
 77
1
  4

 78
1
 79
1
170
1
 48
1.0
171
1
  6

172
1
173
1
174
1
140
1.0
141
1.0
175
1
  7

176
1
177
1
178
1
143
1.0
179
1
  8

270
1
271
1
272
1
145
1.0
146
1.0
273
1
  9

274
1
275
1
276
1
 42
1.0
 72
1
  3

 73
1
 74
1
 75
1
 94
63
  0
MATERIAL
  5
21
102
{ACAD_REACTORS
330
E
102
}
330
E
100
AcDbMaterial
  1
Global
  2

 70
0
 40
1.0
 71
1
 41
1.0
 91
-1023410177
 42
1.0
 72
1
  3

 73
1
 74
1
 75
1
 44
0.5
 73
0
 45
1.0
 46
1.0
 77
1
  4

 78
1
 79
1
170
1
 48
1.0
171
1
  6

172
1
173
1
174
1
140
1.0
141
1.0
175
1
  7

176
1
177
1
178
1
143
1.0
179
1
  8

270
1
271
1
272
1
145
1.0
146
1.0
273
1
  9

274
1
275
1
276
1
 42
1.0
 72
1
  3

 73
1
 74
1
 75
1
 94
63
  0
MLINESTYLE
  5
22
102
{ACAD_REACTORS
330
10
102
}
330
10
100
AcDbMlineStyle
  2
Standard
 70
0
  3

 62
256
 51
90.0
 52
90.0
 71
2
 49
0.5
 62
256
  6
BYLAYER
 49
-0.5
 62
256
  6
BYLAYER
  0
MLEADERSTYLE
  5
2C
102
{ACAD_REACTORS
330
F
102
}
330
F
100
AcDbMLeaderStyle
179
2
170
2
171
1
172
0
 90
2
 40
0.0
 41
0.0
173
1
 91
-1056964608
 92
-2
290
1
 42
2.0
291
1
 43
8.0
  3
Standard
 44
4.0
300

342
29
174
1
175
1
176
0
178
1
 93
-1056964608
 45
4.0
292
0
297
0
 46
4.0
 94
-1056964608
 47
1.0
 49
1.0
140
1.0
294
1
141
0.0
177
0
142
1.0
295
0
296
0
143
3.75
271
0
272
9
273
9
  0
DICTIONARY
  5
2D
330
A
100
AcDbDictionary
280
1
281
1
  3
CREATED_BY_EZDXF
350
2E
  3
WRITTEN_BY_EZDXF
350
280
  0
DICTIONARYVAR
  5
2E
330
2D
100
DictionaryVariables
280
0
  1
0.17 @ 2021-10-29T21:38:48.572105+00:00
  0
DICTIONARYVAR
  5
280
330
2D
100
DictionaryVariables
280
0
  1
0.17 @ 2021-10-29T21:38:48.606105+00:00
  0
ENDSEC
  0
EOF
